{
	"asset":{
		"generator":"Khronos glTF Blender I/O v4.1.62",
		"version":"2.0"
	},
	"extensionsUsed":[
		"KHR_materials_specular"
	],
	"scene":0,
	"scenes":[
		{
			"name":"Scene",
			"nodes":[
				29
			]
		}
	],
	"nodes":[
		{
			"name":"wing_right7_end",
			"rotation":[
				-8.475036850086326e-08,
				3.073364496231079e-08,
				3.9115555239277455e-08,
				1
			],
			"scale":[
				1,
				0.9999998211860657,
				0.9999998807907104
			],
			"translation":[
				4.76837158203125e-07,
				7.179983139038086,
				4.76837158203125e-07
			]
		},
		{
			"children":[
				0
			],
			"name":"wing_right7",
			"rotation":[
				-0.22697998583316803,
				0.19417740404605865,
				0.22046606242656708,
				0.9285310506820679
			],
			"translation":[
				-3.5762786865234375e-07,
				2.1357336044311523,
				4.76837158203125e-07
			]
		},
		{
			"children":[
				1
			],
			"name":"wing_right6",
			"rotation":[
				0.0373326800763607,
				-0.035639312118291855,
				-0.06860165297985077,
				0.9963081479072571
			],
			"scale":[
				1,
				1.0000001192092896,
				1
			],
			"translation":[
				-2.9802322387695312e-08,
				1.8373111486434937,
				-7.748603820800781e-07
			]
		},
		{
			"children":[
				2
			],
			"name":"wing_right5",
			"rotation":[
				-0.00998480711132288,
				0.010172834619879723,
				0.030474960803985596,
				0.9994338750839233
			],
			"scale":[
				0.9999999403953552,
				1.0000001192092896,
				1
			],
			"translation":[
				2.384185791015625e-07,
				1.1845824718475342,
				-5.364418029785156e-07
			]
		},
		{
			"children":[
				3
			],
			"name":"wing_right4",
			"rotation":[
				0.013853449374437332,
				-0.014075761660933495,
				-0.04172990843653679,
				0.9989336729049683
			],
			"scale":[
				1,
				0.9999999403953552,
				0.9999998211860657
			],
			"translation":[
				5.960464477539063e-08,
				1.1979947090148926,
				1.1920928955078125e-07
			]
		},
		{
			"children":[
				4
			],
			"name":"wing_right3",
			"rotation":[
				0.002519824542105198,
				-0.002541837515309453,
				-0.007190134841948748,
				0.9999677538871765
			],
			"scale":[
				0.9999999403953552,
				0.9999999403953552,
				1
			],
			"translation":[
				3.2782554626464844e-07,
				0.9657363891601562,
				-1.043081283569336e-06
			]
		},
		{
			"children":[
				5
			],
			"name":"wing_right2",
			"rotation":[
				-0.010464953258633614,
				0.010588804259896278,
				0.030641812831163406,
				0.9994195699691772
			],
			"scale":[
				0.9999999403953552,
				1,
				0.9999999403953552
			],
			"translation":[
				8.940696716308594e-08,
				1.2553839683532715,
				0
			]
		},
		{
			"children":[
				6
			],
			"name":"wing_right1",
			"rotation":[
				0.02647271379828453,
				-0.02655370719730854,
				-0.0736331045627594,
				0.9965803027153015
			],
			"scale":[
				1,
				1,
				0.9999999403953552
			],
			"translation":[
				2.8312206268310547e-07,
				4.142403602600098,
				-4.172325134277344e-07
			]
		},
		{
			"children":[
				7
			],
			"name":"wing_right0",
			"rotation":[
				-0.006470561493188143,
				-7.306705924747803e-07,
				-0.5358757376670837,
				0.8442720770835876
			],
			"scale":[
				0.9999999403953552,
				0.9999998807907104,
				1
			],
			"translation":[
				-1.817941665649414e-06,
				1.1045818328857422,
				-7.469207048416138e-07
			]
		},
		{
			"name":"wing_left7_end",
			"rotation":[
				-1.2852251529693604e-07,
				-1.3969838619232178e-07,
				1.30385160446167e-08,
				1
			],
			"translation":[
				9.5367431640625e-07,
				7.179982662200928,
				-5.960464477539062e-07
			]
		},
		{
			"children":[
				9
			],
			"name":"wing_left7",
			"rotation":[
				-0.22697997093200684,
				-0.19417740404605865,
				-0.22046621143817902,
				0.9285310506820679
			],
			"translation":[
				-5.960464477539062e-07,
				2.135732650756836,
				-3.5762786865234375e-07
			]
		},
		{
			"children":[
				10
			],
			"name":"wing_left6",
			"rotation":[
				0.04140757396817207,
				0.04007716849446297,
				0.08087557554244995,
				0.9950569868087769
			],
			"scale":[
				1,
				1.0000001192092896,
				1
			],
			"translation":[
				4.76837158203125e-07,
				2.184041976928711,
				-5.364418029785156e-07
			]
		},
		{
			"children":[
				11
			],
			"name":"wing_left5",
			"rotation":[
				-0.006906237918883562,
				-0.006992287002503872,
				-0.02027125470340252,
				0.9997462034225464
			],
			"scale":[
				1,
				1,
				0.9999999403953552
			],
			"translation":[
				2.384185791015625e-07,
				1.491815447807312,
				0
			]
		},
		{
			"children":[
				12
			],
			"name":"wing_left4",
			"rotation":[
				0.009767250157892704,
				0.009873633272945881,
				0.02840234711766243,
				0.9995000958442688
			],
			"scale":[
				0.9999999403953552,
				0.9999999403953552,
				1
			],
			"translation":[
				2.980232238769531e-07,
				1.3918676376342773,
				1.3113021850585938e-06
			]
		},
		{
			"children":[
				13
			],
			"name":"wing_left3",
			"rotation":[
				0.001927975914441049,
				0.0019404866034165025,
				0.005395767278969288,
				0.999981701374054
			],
			"scale":[
				0.9999998807907104,
				0.9999999403953552,
				0.9999999403953552
			],
			"translation":[
				-6.258487701416016e-07,
				1.1052542924880981,
				-5.066394805908203e-07
			]
		},
		{
			"children":[
				14
			],
			"name":"wing_left2",
			"rotation":[
				-0.00768832303583622,
				-0.007753234356641769,
				-0.02192511036992073,
				0.9997000098228455
			],
			"scale":[
				1,
				1.0000001192092896,
				1
			],
			"translation":[
				8.642673492431641e-07,
				1.528259515762329,
				-5.066394805908203e-07
			]
		},
		{
			"children":[
				15
			],
			"name":"wing_left1",
			"rotation":[
				0.021260417997837067,
				0.02131173387169838,
				0.05809119716286659,
				0.9978572726249695
			],
			"scale":[
				0.9999999403953552,
				1,
				0.9999998807907104
			],
			"translation":[
				9.611248970031738e-07,
				4.318157196044922,
				-2.2351741790771484e-08
			]
		},
		{
			"children":[
				16
			],
			"name":"wing_left0",
			"rotation":[
				0.006536321714520454,
				0.016066810116171837,
				0.8595782518386841,
				0.5107097029685974
			],
			"scale":[
				1.0000001192092896,
				1,
				0.9999999403953552
			],
			"translation":[
				-0.8913170695304871,
				0.6528706550598145,
				0.0226103775203228
			]
		},
		{
			"children":[
				8,
				17
			],
			"name":"body_top1",
			"rotation":[
				-0.15617616474628448,
				0.6876609325408936,
				0.6876608729362488,
				0.17278306186199188
			],
			"scale":[
				1,
				1.0000001192092896,
				1.0000001192092896
			],
			"translation":[
				0,
				3.0000011920928955,
				-3.2462583021697355e-07
			]
		},
		{
			"children":[
				18
			],
			"name":"body_top0",
			"scale":[
				1,
				0.9999999403953552,
				1
			],
			"translation":[
				0,
				3,
				-5.511195695362403e-07
			]
		},
		{
			"name":"tail5_end",
			"rotation":[
				-3.725290298461914e-08,
				4.263260480318748e-14,
				-2.467490831613555e-15,
				1
			],
			"translation":[
				-5.9604136737334557e-08,
				3.6022260189056396,
				1.4901166878189542e-07
			]
		},
		{
			"children":[
				20
			],
			"name":"tail5",
			"rotation":[
				4.3213367462158203e-07,
				-7.278435987245757e-08,
				3.9017876929392514e-08,
				1
			],
			"translation":[
				-6.695050558391813e-08,
				0.7638128399848938,
				1.3266296150504786e-07
			]
		},
		{
			"children":[
				21
			],
			"name":"tail4",
			"rotation":[
				-2.8312211952652433e-07,
				1.446643409508397e-07,
				-7.75509363393212e-08,
				1
			],
			"scale":[
				1,
				0.9999998211860657,
				0.9999999403953552
			],
			"translation":[
				-6.075637770663889e-09,
				0.7734213471412659,
				-3.7239550465528737e-07
			]
		},
		{
			"children":[
				22
			],
			"name":"tail3",
			"rotation":[
				4.470348358154297e-08,
				-1.4650312607500382e-07,
				7.853670069835061e-08,
				1
			],
			"translation":[
				-3.236158363506547e-08,
				0.7449904084205627,
				-1.0842735775895562e-07
			]
		},
		{
			"children":[
				23
			],
			"name":"tail2",
			"rotation":[
				3.7252897300277255e-07,
				7.462312368033963e-08,
				-4.000359155043043e-08,
				1
			],
			"scale":[
				1,
				1.0000001192092896,
				1.0000001192092896
			],
			"translation":[
				5.960464477539063e-08,
				0.7390490770339966,
				0
			]
		},
		{
			"children":[
				24
			],
			"name":"tail1",
			"rotation":[
				-3.7997961044311523e-07,
				0,
				0,
				1
			],
			"translation":[
				5.960464477539063e-08,
				0.5809522867202759,
				7.152557373046875e-07
			]
		},
		{
			"children":[
				25
			],
			"name":"tail0",
			"rotation":[
				0.9572926163673401,
				0,
				0,
				0.28912076354026794
			],
			"scale":[
				1,
				0.9999999403953552,
				0.9999990463256836
			],
			"translation":[
				0,
				-5.999999046325684,
				3.987992525100708
			]
		},
		{
			"children":[
				19,
				26
			],
			"name":"body",
			"translation":[
				-0.7264999151229858,
				2.3320000171661377,
				-8.149999618530273
			]
		},
		{
			"mesh":0,
			"name":"canary-fly-static",
			"skin":0
		},
		{
			"children":[
				28,
				27
			],
			"name":"rig",
			"rotation":[
				0.7071068286895752,
				0,
				0,
				0.7071068286895752
			]
		}
	],
	"materials":[
		{
			"doubleSided":true,
			"extensions":{
				"KHR_materials_specular":{
					"specularColorFactor":[
						1.600000023841858,
						1.600000023841858,
						1.600000023841858
					]
				}
			},
			"name":"None",
			"pbrMetallicRoughness":{
				"baseColorFactor":[
					0.800000011920929,
					0.800000011920929,
					0.800000011920929,
					1
				],
				"metallicFactor":0,
				"roughnessFactor":0.2546440064907074
			}
		}
	],
	"meshes":[
		{
			"name":"canary-fly-static",
			"primitives":[
				{
					"attributes":{
						"POSITION":0,
						"NORMAL":1,
						"JOINTS_0":2,
						"WEIGHTS_0":3
					},
					"indices":4,
					"material":0
				}
			]
		}
	],
	"skins":[
		{
			"inverseBindMatrices":5,
			"joints":[
				27,
				19,
				18,
				8,
				7,
				6,
				5,
				4,
				3,
				2,
				1,
				0,
				17,
				16,
				15,
				14,
				13,
				12,
				11,
				10,
				9,
				26,
				25,
				24,
				23,
				22,
				21,
				20
			],
			"name":"rig"
		}
	],
	"accessors":[
		{
			"bufferView":0,
			"componentType":5126,
			"count":6268,
			"max":[
				39.00194549560547,
				16.91542625427246,
				26.31951332092285
			],
			"min":[
				-39.00194549560547,
				-16.915424346923828,
				-26.319515228271484
			],
			"type":"VEC3"
		},
		{
			"bufferView":1,
			"componentType":5126,
			"count":6268,
			"type":"VEC3"
		},
		{
			"bufferView":2,
			"componentType":5121,
			"count":6268,
			"type":"VEC4"
		},
		{
			"bufferView":3,
			"componentType":5126,
			"count":6268,
			"type":"VEC4"
		},
		{
			"bufferView":4,
			"componentType":5123,
			"count":6990,
			"type":"SCALAR"
		},
		{
			"bufferView":5,
			"componentType":5126,
			"count":28,
			"type":"MAT4"
		}
	],
	"bufferViews":[
		{
			"buffer":0,
			"byteLength":75216,
			"byteOffset":0,
			"target":34962
		},
		{
			"buffer":0,
			"byteLength":75216,
			"byteOffset":75216,
			"target":34962
		},
		{
			"buffer":0,
			"byteLength":25072,
			"byteOffset":150432,
			"target":34962
		},
		{
			"buffer":0,
			"byteLength":100288,
			"byteOffset":175504,
			"target":34962
		},
		{
			"buffer":0,
			"byteLength":13980,
			"byteOffset":275792,
			"target":34963
		},
		{
			"buffer":0,
			"byteLength":1792,
			"byteOffset":289772
		}
	],
	"buffers":[
		{
			"byteLength":291564,
			"uri":"canary-fly-static.bin"
		}
	]
}
