{
	"asset":{
		"generator":"Khronos glTF Blender I/O v4.1.62",
		"version":"2.0"
	},
	"extensionsUsed":[
		"KHR_materials_specular"
	],
	"scene":0,
	"scenes":[
		{
			"name":"Scene",
			"nodes":[
				26
			]
		}
	],
	"nodes":[
		{
			"name":"wing_right7",
			"rotation":[
				-0.22697953879833221,
				0.19417734444141388,
				0.22046637535095215,
				0.9285311102867126
			],
			"scale":[
				1,
				1.0000001192092896,
				1.0000001192092896
			],
			"translation":[
				-5.960464477539062e-07,
				2.1357340812683105,
				7.152557373046875e-07
			]
		},
		{
			"children":[
				0
			],
			"name":"wing_right6",
			"rotation":[
				0.03733246773481369,
				-0.03563911095261574,
				-0.06860119104385376,
				0.9963082075119019
			],
			"scale":[
				0.9999998807907104,
				0.9999998807907104,
				1
			],
			"translation":[
				-5.066394805908203e-07,
				1.8373128175735474,
				5.364418029785156e-07
			]
		},
		{
			"children":[
				1
			],
			"name":"wing_right5",
			"rotation":[
				-0.009984277188777924,
				0.010172354057431221,
				0.03047454170882702,
				0.9994339346885681
			],
			"scale":[
				0.9999999403953552,
				1,
				1
			],
			"translation":[
				4.76837158203125e-07,
				1.184579610824585,
				3.5762786865234375e-07
			]
		},
		{
			"children":[
				2
			],
			"name":"wing_right4",
			"rotation":[
				0.013853229582309723,
				-0.01407551858574152,
				-0.041729215532541275,
				0.9989337921142578
			],
			"translation":[
				2.9802322387695312e-08,
				1.197998046875,
				1.7881393432617188e-07
			]
		},
		{
			"children":[
				3
			],
			"name":"wing_right3",
			"rotation":[
				0.0025202599354088306,
				-0.0025422433391213417,
				-0.007190648000687361,
				0.9999676942825317
			],
			"scale":[
				1,
				1,
				0.9999998807907104
			],
			"translation":[
				6.556510925292969e-07,
				0.9657373428344727,
				-1.0132789611816406e-06
			]
		},
		{
			"children":[
				4
			],
			"name":"wing_right2",
			"rotation":[
				-0.01046519260853529,
				0.010588960722088814,
				0.0306412223726511,
				0.9994195699691772
			],
			"scale":[
				1,
				1.0000001192092896,
				0.9999999403953552
			],
			"translation":[
				-5.960464477539063e-08,
				1.2553820610046387,
				-3.8743019104003906e-07
			]
		},
		{
			"children":[
				5
			],
			"name":"wing_right1",
			"rotation":[
				0.026472434401512146,
				-0.0265534408390522,
				-0.07363254576921463,
				0.9965803623199463
			],
			"scale":[
				0.9999999403953552,
				1,
				1
			],
			"translation":[
				-1.4901161193847656e-07,
				4.142405033111572,
				4.470348358154297e-08
			]
		},
		{
			"children":[
				6
			],
			"name":"wing_right0",
			"rotation":[
				-0.006470652297139168,
				-5.503125635186734e-07,
				-0.5358757376670837,
				0.8442720770835876
			],
			"translation":[
				-8.642673492431641e-07,
				1.1045825481414795,
				-1.257285475730896e-06
			]
		},
		{
			"name":"wing_left7",
			"rotation":[
				-0.22697944939136505,
				-0.1941767781972885,
				-0.2204670011997223,
				0.9285311698913574
			],
			"scale":[
				0.9999999403953552,
				0.9999999403953552,
				1
			],
			"translation":[
				8.344650268554688e-07,
				2.1357309818267822,
				3.5762786865234375e-07
			]
		},
		{
			"children":[
				8
			],
			"name":"wing_left6",
			"rotation":[
				0.04140763357281685,
				0.04007720947265625,
				0.08087623119354248,
				0.9950569272041321
			],
			"scale":[
				1,
				0.9999998807907104,
				0.9999999403953552
			],
			"translation":[
				-4.76837158203125e-07,
				2.184044361114502,
				-1.7881393432617188e-07
			]
		},
		{
			"children":[
				9
			],
			"name":"wing_left5",
			"rotation":[
				-0.006906143855303526,
				-0.006992144510149956,
				-0.020270483568310738,
				0.9997462034225464
			],
			"scale":[
				1.0000001192092896,
				0.9999998807907104,
				0.9999999403953552
			],
			"translation":[
				3.2782554626464844e-07,
				1.491816759109497,
				-5.960464477539062e-07
			]
		},
		{
			"children":[
				10
			],
			"name":"wing_left4",
			"rotation":[
				0.00976655911654234,
				0.00987297110259533,
				0.0284010898321867,
				0.9995000958442688
			],
			"scale":[
				0.9999998211860657,
				1.0000001192092896,
				0.9999999403953552
			],
			"translation":[
				-4.172325134277344e-07,
				1.391865611076355,
				8.940696716308594e-08
			]
		},
		{
			"children":[
				11
			],
			"name":"wing_left3",
			"rotation":[
				0.0019287538016214967,
				0.0019412011606618762,
				0.005396431777626276,
				0.999981701374054
			],
			"scale":[
				0.9999998807907104,
				0.9999999403953552,
				0.9999999403953552
			],
			"translation":[
				-2.086162567138672e-07,
				1.1052550077438354,
				5.066394805908203e-07
			]
		},
		{
			"children":[
				12
			],
			"name":"wing_left2",
			"rotation":[
				-0.007688496727496386,
				-0.007753368932753801,
				-0.021924765780568123,
				0.9997000098228455
			],
			"scale":[
				1.0000001192092896,
				1.0000001192092896,
				1
			],
			"translation":[
				-6.258487701416016e-07,
				1.5282583236694336,
				-7.450580596923828e-07
			]
		},
		{
			"children":[
				13
			],
			"name":"wing_left1",
			"rotation":[
				0.02126016840338707,
				0.021311497315764427,
				0.058090586215257645,
				0.997857391834259
			],
			"scale":[
				1,
				1.0000001192092896,
				1
			],
			"translation":[
				7.078051567077637e-07,
				4.318158149719238,
				-4.880130290985107e-07
			]
		},
		{
			"children":[
				14
			],
			"name":"wing_left0",
			"rotation":[
				0.00653650751337409,
				0.016066892072558403,
				0.8595781922340393,
				0.5107097625732422
			],
			"scale":[
				1.0000001192092896,
				1.0000001192092896,
				1
			],
			"translation":[
				-0.8913161158561707,
				0.6528717279434204,
				0.022610196843743324
			]
		},
		{
			"children":[
				7,
				15
			],
			"name":"body_top1",
			"rotation":[
				-0.156175896525383,
				0.6876609325408936,
				0.6876609921455383,
				0.17278307676315308
			],
			"scale":[
				0.9999999403953552,
				0.9999998211860657,
				0.9999999403953552
			],
			"translation":[
				0,
				3.00000262260437,
				-3.642034016593243e-07
			]
		},
		{
			"children":[
				16
			],
			"name":"body_top0",
			"translation":[
				0,
				3,
				-2.1404177914519096e-06
			]
		},
		{
			"name":"tail5",
			"rotation":[
				1.4528632164001465e-06,
				-1.4556880501004343e-07,
				7.803595281075104e-08,
				1
			],
			"translation":[
				4.491198524192441e-08,
				0.7638118267059326,
				2.6907187589131354e-08
			]
		},
		{
			"children":[
				18
			],
			"name":"tail4",
			"rotation":[
				-9.238721077053924e-07,
				2.893286250582605e-07,
				-1.5510192952206125e-07,
				1
			],
			"scale":[
				1,
				0.9999999403953552,
				0.9999999403953552
			],
			"translation":[
				4.745064074995753e-08,
				0.7734218835830688,
				4.4730160198014346e-07
			]
		},
		{
			"children":[
				19
			],
			"name":"tail3",
			"rotation":[
				7.599592208862305e-07,
				-1.4375991952420009e-07,
				7.706607618729322e-08,
				1
			],
			"translation":[
				5.960425042417228e-08,
				0.7449908256530762,
				-2.5757174171303632e-14
			]
		},
		{
			"children":[
				20
			],
			"name":"tail2",
			"rotation":[
				6.034970283508301e-07,
				-7.522309175556074e-08,
				4.032524714148167e-08,
				1
			],
			"translation":[
				1.9315336885483703e-08,
				0.7390499711036682,
				-1.0929920080116062e-07
			]
		},
		{
			"children":[
				21
			],
			"name":"tail1",
			"rotation":[
				-1.519918441772461e-06,
				7.522308465013339e-08,
				-4.0325314643041565e-08,
				1
			],
			"translation":[
				0,
				0.5809531807899475,
				7.152557373046875e-07
			]
		},
		{
			"children":[
				22
			],
			"name":"tail0",
			"rotation":[
				0.9572927951812744,
				0,
				0,
				0.28912025690078735
			],
			"scale":[
				1,
				0.9999999403953552,
				0.9999995231628418
			],
			"translation":[
				0,
				-5.999998092651367,
				3.9879915714263916
			]
		},
		{
			"children":[
				17,
				23
			],
			"name":"body",
			"translation":[
				-0.7264999151229858,
				2.3320000171661377,
				-8.149999618530273
			]
		},
		{
			"mesh":0,
			"name":"canary-fly-static",
			"skin":0
		},
		{
			"children":[
				25,
				24
			],
			"name":"rig",
			"rotation":[
				0.7071068286895752,
				0,
				0,
				0.7071068286895752
			]
		}
	],
	"animations":[
		{
			"channels":[
				{
					"sampler":0,
					"target":{
						"node":24,
						"path":"translation"
					}
				},
				{
					"sampler":1,
					"target":{
						"node":24,
						"path":"rotation"
					}
				},
				{
					"sampler":2,
					"target":{
						"node":24,
						"path":"scale"
					}
				},
				{
					"sampler":3,
					"target":{
						"node":17,
						"path":"translation"
					}
				},
				{
					"sampler":4,
					"target":{
						"node":17,
						"path":"rotation"
					}
				},
				{
					"sampler":5,
					"target":{
						"node":17,
						"path":"scale"
					}
				},
				{
					"sampler":6,
					"target":{
						"node":16,
						"path":"translation"
					}
				},
				{
					"sampler":7,
					"target":{
						"node":16,
						"path":"rotation"
					}
				},
				{
					"sampler":8,
					"target":{
						"node":16,
						"path":"scale"
					}
				},
				{
					"sampler":9,
					"target":{
						"node":7,
						"path":"translation"
					}
				},
				{
					"sampler":10,
					"target":{
						"node":7,
						"path":"rotation"
					}
				},
				{
					"sampler":11,
					"target":{
						"node":7,
						"path":"scale"
					}
				},
				{
					"sampler":12,
					"target":{
						"node":6,
						"path":"translation"
					}
				},
				{
					"sampler":13,
					"target":{
						"node":6,
						"path":"rotation"
					}
				},
				{
					"sampler":14,
					"target":{
						"node":6,
						"path":"scale"
					}
				},
				{
					"sampler":15,
					"target":{
						"node":5,
						"path":"translation"
					}
				},
				{
					"sampler":16,
					"target":{
						"node":5,
						"path":"rotation"
					}
				},
				{
					"sampler":17,
					"target":{
						"node":5,
						"path":"scale"
					}
				},
				{
					"sampler":18,
					"target":{
						"node":4,
						"path":"translation"
					}
				},
				{
					"sampler":19,
					"target":{
						"node":4,
						"path":"rotation"
					}
				},
				{
					"sampler":20,
					"target":{
						"node":4,
						"path":"scale"
					}
				},
				{
					"sampler":21,
					"target":{
						"node":3,
						"path":"translation"
					}
				},
				{
					"sampler":22,
					"target":{
						"node":3,
						"path":"rotation"
					}
				},
				{
					"sampler":23,
					"target":{
						"node":3,
						"path":"scale"
					}
				},
				{
					"sampler":24,
					"target":{
						"node":2,
						"path":"translation"
					}
				},
				{
					"sampler":25,
					"target":{
						"node":2,
						"path":"rotation"
					}
				},
				{
					"sampler":26,
					"target":{
						"node":2,
						"path":"scale"
					}
				},
				{
					"sampler":27,
					"target":{
						"node":1,
						"path":"translation"
					}
				},
				{
					"sampler":28,
					"target":{
						"node":1,
						"path":"rotation"
					}
				},
				{
					"sampler":29,
					"target":{
						"node":1,
						"path":"scale"
					}
				},
				{
					"sampler":30,
					"target":{
						"node":0,
						"path":"translation"
					}
				},
				{
					"sampler":31,
					"target":{
						"node":0,
						"path":"rotation"
					}
				},
				{
					"sampler":32,
					"target":{
						"node":0,
						"path":"scale"
					}
				},
				{
					"sampler":33,
					"target":{
						"node":15,
						"path":"translation"
					}
				},
				{
					"sampler":34,
					"target":{
						"node":15,
						"path":"rotation"
					}
				},
				{
					"sampler":35,
					"target":{
						"node":15,
						"path":"scale"
					}
				},
				{
					"sampler":36,
					"target":{
						"node":14,
						"path":"translation"
					}
				},
				{
					"sampler":37,
					"target":{
						"node":14,
						"path":"rotation"
					}
				},
				{
					"sampler":38,
					"target":{
						"node":14,
						"path":"scale"
					}
				},
				{
					"sampler":39,
					"target":{
						"node":13,
						"path":"translation"
					}
				},
				{
					"sampler":40,
					"target":{
						"node":13,
						"path":"rotation"
					}
				},
				{
					"sampler":41,
					"target":{
						"node":13,
						"path":"scale"
					}
				},
				{
					"sampler":42,
					"target":{
						"node":12,
						"path":"translation"
					}
				},
				{
					"sampler":43,
					"target":{
						"node":12,
						"path":"rotation"
					}
				},
				{
					"sampler":44,
					"target":{
						"node":12,
						"path":"scale"
					}
				},
				{
					"sampler":45,
					"target":{
						"node":11,
						"path":"translation"
					}
				},
				{
					"sampler":46,
					"target":{
						"node":11,
						"path":"rotation"
					}
				},
				{
					"sampler":47,
					"target":{
						"node":11,
						"path":"scale"
					}
				},
				{
					"sampler":48,
					"target":{
						"node":10,
						"path":"translation"
					}
				},
				{
					"sampler":49,
					"target":{
						"node":10,
						"path":"rotation"
					}
				},
				{
					"sampler":50,
					"target":{
						"node":10,
						"path":"scale"
					}
				},
				{
					"sampler":51,
					"target":{
						"node":9,
						"path":"translation"
					}
				},
				{
					"sampler":52,
					"target":{
						"node":9,
						"path":"rotation"
					}
				},
				{
					"sampler":53,
					"target":{
						"node":9,
						"path":"scale"
					}
				},
				{
					"sampler":54,
					"target":{
						"node":8,
						"path":"translation"
					}
				},
				{
					"sampler":55,
					"target":{
						"node":8,
						"path":"rotation"
					}
				},
				{
					"sampler":56,
					"target":{
						"node":8,
						"path":"scale"
					}
				},
				{
					"sampler":57,
					"target":{
						"node":23,
						"path":"translation"
					}
				},
				{
					"sampler":58,
					"target":{
						"node":23,
						"path":"rotation"
					}
				},
				{
					"sampler":59,
					"target":{
						"node":23,
						"path":"scale"
					}
				},
				{
					"sampler":60,
					"target":{
						"node":22,
						"path":"translation"
					}
				},
				{
					"sampler":61,
					"target":{
						"node":22,
						"path":"rotation"
					}
				},
				{
					"sampler":62,
					"target":{
						"node":22,
						"path":"scale"
					}
				},
				{
					"sampler":63,
					"target":{
						"node":21,
						"path":"translation"
					}
				},
				{
					"sampler":64,
					"target":{
						"node":21,
						"path":"rotation"
					}
				},
				{
					"sampler":65,
					"target":{
						"node":21,
						"path":"scale"
					}
				},
				{
					"sampler":66,
					"target":{
						"node":20,
						"path":"translation"
					}
				},
				{
					"sampler":67,
					"target":{
						"node":20,
						"path":"rotation"
					}
				},
				{
					"sampler":68,
					"target":{
						"node":20,
						"path":"scale"
					}
				},
				{
					"sampler":69,
					"target":{
						"node":19,
						"path":"translation"
					}
				},
				{
					"sampler":70,
					"target":{
						"node":19,
						"path":"rotation"
					}
				},
				{
					"sampler":71,
					"target":{
						"node":19,
						"path":"scale"
					}
				},
				{
					"sampler":72,
					"target":{
						"node":18,
						"path":"translation"
					}
				},
				{
					"sampler":73,
					"target":{
						"node":18,
						"path":"rotation"
					}
				},
				{
					"sampler":74,
					"target":{
						"node":18,
						"path":"scale"
					}
				},
				{
					"sampler":75,
					"target":{
						"node":26,
						"path":"translation"
					}
				},
				{
					"sampler":76,
					"target":{
						"node":26,
						"path":"rotation"
					}
				},
				{
					"sampler":77,
					"target":{
						"node":26,
						"path":"scale"
					}
				}
			],
			"name":"rig|rig|fly",
			"samplers":[
				{
					"input":6,
					"interpolation":"STEP",
					"output":7
				},
				{
					"input":6,
					"interpolation":"STEP",
					"output":8
				},
				{
					"input":6,
					"interpolation":"STEP",
					"output":9
				},
				{
					"input":6,
					"interpolation":"STEP",
					"output":10
				},
				{
					"input":11,
					"interpolation":"LINEAR",
					"output":12
				},
				{
					"input":6,
					"interpolation":"STEP",
					"output":13
				},
				{
					"input":6,
					"interpolation":"STEP",
					"output":14
				},
				{
					"input":11,
					"interpolation":"LINEAR",
					"output":15
				},
				{
					"input":6,
					"interpolation":"STEP",
					"output":16
				},
				{
					"input":6,
					"interpolation":"STEP",
					"output":17
				},
				{
					"input":11,
					"interpolation":"LINEAR",
					"output":18
				},
				{
					"input":6,
					"interpolation":"STEP",
					"output":19
				},
				{
					"input":6,
					"interpolation":"STEP",
					"output":20
				},
				{
					"input":11,
					"interpolation":"LINEAR",
					"output":21
				},
				{
					"input":6,
					"interpolation":"STEP",
					"output":22
				},
				{
					"input":6,
					"interpolation":"STEP",
					"output":23
				},
				{
					"input":11,
					"interpolation":"LINEAR",
					"output":24
				},
				{
					"input":6,
					"interpolation":"STEP",
					"output":25
				},
				{
					"input":6,
					"interpolation":"STEP",
					"output":26
				},
				{
					"input":11,
					"interpolation":"LINEAR",
					"output":27
				},
				{
					"input":6,
					"interpolation":"STEP",
					"output":28
				},
				{
					"input":6,
					"interpolation":"STEP",
					"output":29
				},
				{
					"input":11,
					"interpolation":"LINEAR",
					"output":30
				},
				{
					"input":6,
					"interpolation":"STEP",
					"output":31
				},
				{
					"input":6,
					"interpolation":"STEP",
					"output":32
				},
				{
					"input":11,
					"interpolation":"LINEAR",
					"output":33
				},
				{
					"input":6,
					"interpolation":"STEP",
					"output":34
				},
				{
					"input":6,
					"interpolation":"STEP",
					"output":35
				},
				{
					"input":11,
					"interpolation":"LINEAR",
					"output":36
				},
				{
					"input":6,
					"interpolation":"STEP",
					"output":37
				},
				{
					"input":6,
					"interpolation":"STEP",
					"output":38
				},
				{
					"input":11,
					"interpolation":"LINEAR",
					"output":39
				},
				{
					"input":6,
					"interpolation":"STEP",
					"output":40
				},
				{
					"input":6,
					"interpolation":"STEP",
					"output":41
				},
				{
					"input":11,
					"interpolation":"LINEAR",
					"output":42
				},
				{
					"input":6,
					"interpolation":"STEP",
					"output":43
				},
				{
					"input":6,
					"interpolation":"STEP",
					"output":44
				},
				{
					"input":11,
					"interpolation":"LINEAR",
					"output":45
				},
				{
					"input":6,
					"interpolation":"STEP",
					"output":46
				},
				{
					"input":6,
					"interpolation":"STEP",
					"output":47
				},
				{
					"input":11,
					"interpolation":"LINEAR",
					"output":48
				},
				{
					"input":6,
					"interpolation":"STEP",
					"output":49
				},
				{
					"input":6,
					"interpolation":"STEP",
					"output":50
				},
				{
					"input":11,
					"interpolation":"LINEAR",
					"output":51
				},
				{
					"input":6,
					"interpolation":"STEP",
					"output":52
				},
				{
					"input":6,
					"interpolation":"STEP",
					"output":53
				},
				{
					"input":11,
					"interpolation":"LINEAR",
					"output":54
				},
				{
					"input":6,
					"interpolation":"STEP",
					"output":55
				},
				{
					"input":6,
					"interpolation":"STEP",
					"output":56
				},
				{
					"input":11,
					"interpolation":"LINEAR",
					"output":57
				},
				{
					"input":6,
					"interpolation":"STEP",
					"output":58
				},
				{
					"input":6,
					"interpolation":"STEP",
					"output":59
				},
				{
					"input":11,
					"interpolation":"LINEAR",
					"output":60
				},
				{
					"input":6,
					"interpolation":"STEP",
					"output":61
				},
				{
					"input":6,
					"interpolation":"STEP",
					"output":62
				},
				{
					"input":11,
					"interpolation":"LINEAR",
					"output":63
				},
				{
					"input":6,
					"interpolation":"STEP",
					"output":64
				},
				{
					"input":11,
					"interpolation":"LINEAR",
					"output":65
				},
				{
					"input":11,
					"interpolation":"LINEAR",
					"output":66
				},
				{
					"input":6,
					"interpolation":"STEP",
					"output":67
				},
				{
					"input":6,
					"interpolation":"STEP",
					"output":68
				},
				{
					"input":11,
					"interpolation":"LINEAR",
					"output":69
				},
				{
					"input":6,
					"interpolation":"STEP",
					"output":70
				},
				{
					"input":6,
					"interpolation":"STEP",
					"output":71
				},
				{
					"input":11,
					"interpolation":"LINEAR",
					"output":72
				},
				{
					"input":6,
					"interpolation":"STEP",
					"output":73
				},
				{
					"input":6,
					"interpolation":"STEP",
					"output":74
				},
				{
					"input":11,
					"interpolation":"LINEAR",
					"output":75
				},
				{
					"input":6,
					"interpolation":"STEP",
					"output":76
				},
				{
					"input":6,
					"interpolation":"STEP",
					"output":77
				},
				{
					"input":11,
					"interpolation":"LINEAR",
					"output":78
				},
				{
					"input":6,
					"interpolation":"STEP",
					"output":79
				},
				{
					"input":6,
					"interpolation":"STEP",
					"output":80
				},
				{
					"input":11,
					"interpolation":"LINEAR",
					"output":81
				},
				{
					"input":6,
					"interpolation":"STEP",
					"output":82
				},
				{
					"input":6,
					"interpolation":"STEP",
					"output":83
				},
				{
					"input":6,
					"interpolation":"STEP",
					"output":84
				},
				{
					"input":6,
					"interpolation":"STEP",
					"output":85
				}
			]
		}
	],
	"materials":[
		{
			"doubleSided":true,
			"extensions":{
				"KHR_materials_specular":{
					"specularColorFactor":[
						1.600000023841858,
						1.600000023841858,
						1.600000023841858
					]
				}
			},
			"name":"None",
			"pbrMetallicRoughness":{
				"baseColorFactor":[
					0.800000011920929,
					0.800000011920929,
					0.800000011920929,
					1
				],
				"metallicFactor":0,
				"roughnessFactor":0.2546440064907074
			}
		}
	],
	"meshes":[
		{
			"name":"canary-fly-static",
			"primitives":[
				{
					"attributes":{
						"POSITION":0,
						"NORMAL":1,
						"JOINTS_0":2,
						"WEIGHTS_0":3
					},
					"indices":4,
					"material":0
				}
			]
		}
	],
	"skins":[
		{
			"inverseBindMatrices":5,
			"joints":[
				24,
				17,
				16,
				7,
				6,
				5,
				4,
				3,
				2,
				1,
				0,
				15,
				14,
				13,
				12,
				11,
				10,
				9,
				8,
				23,
				22,
				21,
				20,
				19,
				18
			],
			"name":"rig"
		}
	],
	"accessors":[
		{
			"bufferView":0,
			"componentType":5126,
			"count":6265,
			"max":[
				39.00194549560547,
				16.915422439575195,
				26.319515228271484
			],
			"min":[
				-39.00194549560547,
				-16.915424346923828,
				-26.319515228271484
			],
			"type":"VEC3"
		},
		{
			"bufferView":1,
			"componentType":5126,
			"count":6265,
			"type":"VEC3"
		},
		{
			"bufferView":2,
			"componentType":5121,
			"count":6265,
			"type":"VEC4"
		},
		{
			"bufferView":3,
			"componentType":5126,
			"count":6265,
			"type":"VEC4"
		},
		{
			"bufferView":4,
			"componentType":5123,
			"count":6990,
			"type":"SCALAR"
		},
		{
			"bufferView":5,
			"componentType":5126,
			"count":25,
			"type":"MAT4"
		},
		{
			"bufferView":6,
			"componentType":5126,
			"count":2,
			"max":[
				0.43333333333333335
			],
			"min":[
				0.03333333333333333
			],
			"type":"SCALAR"
		},
		{
			"bufferView":7,
			"componentType":5126,
			"count":2,
			"type":"VEC3"
		},
		{
			"bufferView":8,
			"componentType":5126,
			"count":2,
			"type":"VEC4"
		},
		{
			"bufferView":9,
			"componentType":5126,
			"count":2,
			"type":"VEC3"
		},
		{
			"bufferView":10,
			"componentType":5126,
			"count":2,
			"type":"VEC3"
		},
		{
			"bufferView":11,
			"componentType":5126,
			"count":13,
			"max":[
				0.43333333333333335
			],
			"min":[
				0.03333333333333333
			],
			"type":"SCALAR"
		},
		{
			"bufferView":12,
			"componentType":5126,
			"count":13,
			"type":"VEC4"
		},
		{
			"bufferView":13,
			"componentType":5126,
			"count":2,
			"type":"VEC3"
		},
		{
			"bufferView":14,
			"componentType":5126,
			"count":2,
			"type":"VEC3"
		},
		{
			"bufferView":15,
			"componentType":5126,
			"count":13,
			"type":"VEC4"
		},
		{
			"bufferView":16,
			"componentType":5126,
			"count":2,
			"type":"VEC3"
		},
		{
			"bufferView":17,
			"componentType":5126,
			"count":2,
			"type":"VEC3"
		},
		{
			"bufferView":18,
			"componentType":5126,
			"count":13,
			"type":"VEC4"
		},
		{
			"bufferView":19,
			"componentType":5126,
			"count":2,
			"type":"VEC3"
		},
		{
			"bufferView":20,
			"componentType":5126,
			"count":2,
			"type":"VEC3"
		},
		{
			"bufferView":21,
			"componentType":5126,
			"count":13,
			"type":"VEC4"
		},
		{
			"bufferView":22,
			"componentType":5126,
			"count":2,
			"type":"VEC3"
		},
		{
			"bufferView":23,
			"componentType":5126,
			"count":2,
			"type":"VEC3"
		},
		{
			"bufferView":24,
			"componentType":5126,
			"count":13,
			"type":"VEC4"
		},
		{
			"bufferView":25,
			"componentType":5126,
			"count":2,
			"type":"VEC3"
		},
		{
			"bufferView":26,
			"componentType":5126,
			"count":2,
			"type":"VEC3"
		},
		{
			"bufferView":27,
			"componentType":5126,
			"count":13,
			"type":"VEC4"
		},
		{
			"bufferView":28,
			"componentType":5126,
			"count":2,
			"type":"VEC3"
		},
		{
			"bufferView":29,
			"componentType":5126,
			"count":2,
			"type":"VEC3"
		},
		{
			"bufferView":30,
			"componentType":5126,
			"count":13,
			"type":"VEC4"
		},
		{
			"bufferView":31,
			"componentType":5126,
			"count":2,
			"type":"VEC3"
		},
		{
			"bufferView":32,
			"componentType":5126,
			"count":2,
			"type":"VEC3"
		},
		{
			"bufferView":33,
			"componentType":5126,
			"count":13,
			"type":"VEC4"
		},
		{
			"bufferView":34,
			"componentType":5126,
			"count":2,
			"type":"VEC3"
		},
		{
			"bufferView":35,
			"componentType":5126,
			"count":2,
			"type":"VEC3"
		},
		{
			"bufferView":36,
			"componentType":5126,
			"count":13,
			"type":"VEC4"
		},
		{
			"bufferView":37,
			"componentType":5126,
			"count":2,
			"type":"VEC3"
		},
		{
			"bufferView":38,
			"componentType":5126,
			"count":2,
			"type":"VEC3"
		},
		{
			"bufferView":39,
			"componentType":5126,
			"count":13,
			"type":"VEC4"
		},
		{
			"bufferView":40,
			"componentType":5126,
			"count":2,
			"type":"VEC3"
		},
		{
			"bufferView":41,
			"componentType":5126,
			"count":2,
			"type":"VEC3"
		},
		{
			"bufferView":42,
			"componentType":5126,
			"count":13,
			"type":"VEC4"
		},
		{
			"bufferView":43,
			"componentType":5126,
			"count":2,
			"type":"VEC3"
		},
		{
			"bufferView":44,
			"componentType":5126,
			"count":2,
			"type":"VEC3"
		},
		{
			"bufferView":45,
			"componentType":5126,
			"count":13,
			"type":"VEC4"
		},
		{
			"bufferView":46,
			"componentType":5126,
			"count":2,
			"type":"VEC3"
		},
		{
			"bufferView":47,
			"componentType":5126,
			"count":2,
			"type":"VEC3"
		},
		{
			"bufferView":48,
			"componentType":5126,
			"count":13,
			"type":"VEC4"
		},
		{
			"bufferView":49,
			"componentType":5126,
			"count":2,
			"type":"VEC3"
		},
		{
			"bufferView":50,
			"componentType":5126,
			"count":2,
			"type":"VEC3"
		},
		{
			"bufferView":51,
			"componentType":5126,
			"count":13,
			"type":"VEC4"
		},
		{
			"bufferView":52,
			"componentType":5126,
			"count":2,
			"type":"VEC3"
		},
		{
			"bufferView":53,
			"componentType":5126,
			"count":2,
			"type":"VEC3"
		},
		{
			"bufferView":54,
			"componentType":5126,
			"count":13,
			"type":"VEC4"
		},
		{
			"bufferView":55,
			"componentType":5126,
			"count":2,
			"type":"VEC3"
		},
		{
			"bufferView":56,
			"componentType":5126,
			"count":2,
			"type":"VEC3"
		},
		{
			"bufferView":57,
			"componentType":5126,
			"count":13,
			"type":"VEC4"
		},
		{
			"bufferView":58,
			"componentType":5126,
			"count":2,
			"type":"VEC3"
		},
		{
			"bufferView":59,
			"componentType":5126,
			"count":2,
			"type":"VEC3"
		},
		{
			"bufferView":60,
			"componentType":5126,
			"count":13,
			"type":"VEC4"
		},
		{
			"bufferView":61,
			"componentType":5126,
			"count":2,
			"type":"VEC3"
		},
		{
			"bufferView":62,
			"componentType":5126,
			"count":2,
			"type":"VEC3"
		},
		{
			"bufferView":63,
			"componentType":5126,
			"count":13,
			"type":"VEC4"
		},
		{
			"bufferView":64,
			"componentType":5126,
			"count":2,
			"type":"VEC3"
		},
		{
			"bufferView":65,
			"componentType":5126,
			"count":13,
			"type":"VEC3"
		},
		{
			"bufferView":66,
			"componentType":5126,
			"count":13,
			"type":"VEC4"
		},
		{
			"bufferView":67,
			"componentType":5126,
			"count":2,
			"type":"VEC3"
		},
		{
			"bufferView":68,
			"componentType":5126,
			"count":2,
			"type":"VEC3"
		},
		{
			"bufferView":69,
			"componentType":5126,
			"count":13,
			"type":"VEC4"
		},
		{
			"bufferView":70,
			"componentType":5126,
			"count":2,
			"type":"VEC3"
		},
		{
			"bufferView":71,
			"componentType":5126,
			"count":2,
			"type":"VEC3"
		},
		{
			"bufferView":72,
			"componentType":5126,
			"count":13,
			"type":"VEC4"
		},
		{
			"bufferView":73,
			"componentType":5126,
			"count":2,
			"type":"VEC3"
		},
		{
			"bufferView":74,
			"componentType":5126,
			"count":2,
			"type":"VEC3"
		},
		{
			"bufferView":75,
			"componentType":5126,
			"count":13,
			"type":"VEC4"
		},
		{
			"bufferView":76,
			"componentType":5126,
			"count":2,
			"type":"VEC3"
		},
		{
			"bufferView":77,
			"componentType":5126,
			"count":2,
			"type":"VEC3"
		},
		{
			"bufferView":78,
			"componentType":5126,
			"count":13,
			"type":"VEC4"
		},
		{
			"bufferView":79,
			"componentType":5126,
			"count":2,
			"type":"VEC3"
		},
		{
			"bufferView":80,
			"componentType":5126,
			"count":2,
			"type":"VEC3"
		},
		{
			"bufferView":81,
			"componentType":5126,
			"count":13,
			"type":"VEC4"
		},
		{
			"bufferView":82,
			"componentType":5126,
			"count":2,
			"type":"VEC3"
		},
		{
			"bufferView":83,
			"componentType":5126,
			"count":2,
			"type":"VEC3"
		},
		{
			"bufferView":84,
			"componentType":5126,
			"count":2,
			"type":"VEC4"
		},
		{
			"bufferView":85,
			"componentType":5126,
			"count":2,
			"type":"VEC3"
		}
	],
	"bufferViews":[
		{
			"buffer":0,
			"byteLength":75180,
			"byteOffset":0,
			"target":34962
		},
		{
			"buffer":0,
			"byteLength":75180,
			"byteOffset":75180,
			"target":34962
		},
		{
			"buffer":0,
			"byteLength":25060,
			"byteOffset":150360,
			"target":34962
		},
		{
			"buffer":0,
			"byteLength":100240,
			"byteOffset":175420,
			"target":34962
		},
		{
			"buffer":0,
			"byteLength":13980,
			"byteOffset":275660,
			"target":34963
		},
		{
			"buffer":0,
			"byteLength":1600,
			"byteOffset":289640
		},
		{
			"buffer":0,
			"byteLength":8,
			"byteOffset":291240
		},
		{
			"buffer":0,
			"byteLength":24,
			"byteOffset":291248
		},
		{
			"buffer":0,
			"byteLength":32,
			"byteOffset":291272
		},
		{
			"buffer":0,
			"byteLength":24,
			"byteOffset":291304
		},
		{
			"buffer":0,
			"byteLength":24,
			"byteOffset":291328
		},
		{
			"buffer":0,
			"byteLength":52,
			"byteOffset":291352
		},
		{
			"buffer":0,
			"byteLength":208,
			"byteOffset":291404
		},
		{
			"buffer":0,
			"byteLength":24,
			"byteOffset":291612
		},
		{
			"buffer":0,
			"byteLength":24,
			"byteOffset":291636
		},
		{
			"buffer":0,
			"byteLength":208,
			"byteOffset":291660
		},
		{
			"buffer":0,
			"byteLength":24,
			"byteOffset":291868
		},
		{
			"buffer":0,
			"byteLength":24,
			"byteOffset":291892
		},
		{
			"buffer":0,
			"byteLength":208,
			"byteOffset":291916
		},
		{
			"buffer":0,
			"byteLength":24,
			"byteOffset":292124
		},
		{
			"buffer":0,
			"byteLength":24,
			"byteOffset":292148
		},
		{
			"buffer":0,
			"byteLength":208,
			"byteOffset":292172
		},
		{
			"buffer":0,
			"byteLength":24,
			"byteOffset":292380
		},
		{
			"buffer":0,
			"byteLength":24,
			"byteOffset":292404
		},
		{
			"buffer":0,
			"byteLength":208,
			"byteOffset":292428
		},
		{
			"buffer":0,
			"byteLength":24,
			"byteOffset":292636
		},
		{
			"buffer":0,
			"byteLength":24,
			"byteOffset":292660
		},
		{
			"buffer":0,
			"byteLength":208,
			"byteOffset":292684
		},
		{
			"buffer":0,
			"byteLength":24,
			"byteOffset":292892
		},
		{
			"buffer":0,
			"byteLength":24,
			"byteOffset":292916
		},
		{
			"buffer":0,
			"byteLength":208,
			"byteOffset":292940
		},
		{
			"buffer":0,
			"byteLength":24,
			"byteOffset":293148
		},
		{
			"buffer":0,
			"byteLength":24,
			"byteOffset":293172
		},
		{
			"buffer":0,
			"byteLength":208,
			"byteOffset":293196
		},
		{
			"buffer":0,
			"byteLength":24,
			"byteOffset":293404
		},
		{
			"buffer":0,
			"byteLength":24,
			"byteOffset":293428
		},
		{
			"buffer":0,
			"byteLength":208,
			"byteOffset":293452
		},
		{
			"buffer":0,
			"byteLength":24,
			"byteOffset":293660
		},
		{
			"buffer":0,
			"byteLength":24,
			"byteOffset":293684
		},
		{
			"buffer":0,
			"byteLength":208,
			"byteOffset":293708
		},
		{
			"buffer":0,
			"byteLength":24,
			"byteOffset":293916
		},
		{
			"buffer":0,
			"byteLength":24,
			"byteOffset":293940
		},
		{
			"buffer":0,
			"byteLength":208,
			"byteOffset":293964
		},
		{
			"buffer":0,
			"byteLength":24,
			"byteOffset":294172
		},
		{
			"buffer":0,
			"byteLength":24,
			"byteOffset":294196
		},
		{
			"buffer":0,
			"byteLength":208,
			"byteOffset":294220
		},
		{
			"buffer":0,
			"byteLength":24,
			"byteOffset":294428
		},
		{
			"buffer":0,
			"byteLength":24,
			"byteOffset":294452
		},
		{
			"buffer":0,
			"byteLength":208,
			"byteOffset":294476
		},
		{
			"buffer":0,
			"byteLength":24,
			"byteOffset":294684
		},
		{
			"buffer":0,
			"byteLength":24,
			"byteOffset":294708
		},
		{
			"buffer":0,
			"byteLength":208,
			"byteOffset":294732
		},
		{
			"buffer":0,
			"byteLength":24,
			"byteOffset":294940
		},
		{
			"buffer":0,
			"byteLength":24,
			"byteOffset":294964
		},
		{
			"buffer":0,
			"byteLength":208,
			"byteOffset":294988
		},
		{
			"buffer":0,
			"byteLength":24,
			"byteOffset":295196
		},
		{
			"buffer":0,
			"byteLength":24,
			"byteOffset":295220
		},
		{
			"buffer":0,
			"byteLength":208,
			"byteOffset":295244
		},
		{
			"buffer":0,
			"byteLength":24,
			"byteOffset":295452
		},
		{
			"buffer":0,
			"byteLength":24,
			"byteOffset":295476
		},
		{
			"buffer":0,
			"byteLength":208,
			"byteOffset":295500
		},
		{
			"buffer":0,
			"byteLength":24,
			"byteOffset":295708
		},
		{
			"buffer":0,
			"byteLength":24,
			"byteOffset":295732
		},
		{
			"buffer":0,
			"byteLength":208,
			"byteOffset":295756
		},
		{
			"buffer":0,
			"byteLength":24,
			"byteOffset":295964
		},
		{
			"buffer":0,
			"byteLength":156,
			"byteOffset":295988
		},
		{
			"buffer":0,
			"byteLength":208,
			"byteOffset":296144
		},
		{
			"buffer":0,
			"byteLength":24,
			"byteOffset":296352
		},
		{
			"buffer":0,
			"byteLength":24,
			"byteOffset":296376
		},
		{
			"buffer":0,
			"byteLength":208,
			"byteOffset":296400
		},
		{
			"buffer":0,
			"byteLength":24,
			"byteOffset":296608
		},
		{
			"buffer":0,
			"byteLength":24,
			"byteOffset":296632
		},
		{
			"buffer":0,
			"byteLength":208,
			"byteOffset":296656
		},
		{
			"buffer":0,
			"byteLength":24,
			"byteOffset":296864
		},
		{
			"buffer":0,
			"byteLength":24,
			"byteOffset":296888
		},
		{
			"buffer":0,
			"byteLength":208,
			"byteOffset":296912
		},
		{
			"buffer":0,
			"byteLength":24,
			"byteOffset":297120
		},
		{
			"buffer":0,
			"byteLength":24,
			"byteOffset":297144
		},
		{
			"buffer":0,
			"byteLength":208,
			"byteOffset":297168
		},
		{
			"buffer":0,
			"byteLength":24,
			"byteOffset":297376
		},
		{
			"buffer":0,
			"byteLength":24,
			"byteOffset":297400
		},
		{
			"buffer":0,
			"byteLength":208,
			"byteOffset":297424
		},
		{
			"buffer":0,
			"byteLength":24,
			"byteOffset":297632
		},
		{
			"buffer":0,
			"byteLength":24,
			"byteOffset":297656
		},
		{
			"buffer":0,
			"byteLength":32,
			"byteOffset":297680
		},
		{
			"buffer":0,
			"byteLength":24,
			"byteOffset":297712
		}
	],
	"buffers":[
		{
			"byteLength":297736,
			"uri":"data:application/octet-stream;base64,"
		}
	]
}
