<svg width="28" height="18" viewBox="0 0 28 18" fill="none" xmlns="http://www.w3.org/2000/svg">
<path d="M20.3565 17.4931C20.0971 16.9916 19.4356 17.0074 18.9988 16.7377C18.0519 16.1243 16.9702 15.1702 16.9686 13.9619C16.9588 13.3792 17.1891 12.7894 17.6866 12.4545C19.6465 11.0865 22.3698 10.5231 23.6132 8.31654C24.4998 6.76892 24.6808 4.29978 26.4049 3.4541C26.9287 3.21159 27.4646 3.00551 28.0002 2.79071C26.6625 1.71728 25.124 -0.20396 23.2261 0.765365C22.484 1.1079 21.8199 1.58972 21.2233 2.14242C20.6925 2.57468 20.2407 3.12845 19.6071 3.41608C18.3912 3.94108 17.1903 4.5064 16.0717 5.2174C13.0704 7.07871 10.0845 8.96429 7.11384 10.8742L9.02285 10.8981C6.16166 12.4058 3.27207 13.8296 0.414279 15.342H1.24534L0 16.2836C0.719941 16.4204 1.39111 16.3659 2.02888 15.9946V16.2531C4.51169 15.361 12.0975 12.3958 14.3395 13.26L13.1678 13.6031L13.1706 13.6126L15.1893 13.7416C15.5025 15.8393 17.0894 15.6668 17.6409 16.933C17.4113 17.0856 17.0665 17.1906 17.0363 17.4999C18.1856 17.1764 19.203 17.1979 20.3565 17.4931Z" fill="#707070"/>
</svg>
