<svg width="438" height="379" viewBox="0 0 438 379" fill="none" xmlns="http://www.w3.org/2000/svg">
<g clip-path="url(#clip0)">
<path d="M91.0251 184.104H84.1812V187.526H91.0251V184.104Z" fill="white"/>
<path d="M94.9604 131.405C94.7551 131.405 91.0251 130.474 91.0251 130.72V184.103H103.344V187.525H91.0251V240.293C91.0251 240.553 94.7072 243.646 94.9604 243.646H112.926C113.179 243.646 110.873 240.553 110.873 240.293V188.894H115.753C115.958 188.894 113.61 184.576 113.61 184.316V131.405H94.9604Z" fill="white"/>
<path d="M113.61 130.72V131.405H115.753C115.958 131.405 113.61 130.522 113.61 130.72Z" fill="white"/>
<path d="M312.086 217.639H320.299V203.267H318.93V132.773H298.508C293.423 152.621 288.851 167.945 284.82 181.906C282.972 188.942 281.918 193.001 281.665 193.001H271.96C263.597 162.887 258.053 146.461 255.329 132.773H229.322V215.586H231.375V239.54H249.169V234.749H243.694V229.958H249.169V211.479H247.801V195.054H252.893L252.352 193.001H271.837L272.371 195.054H252.893C254.022 199.845 254.638 201.213 254.74 201.213H254.597V214.901H260.072V227.221H268.969V239.54H284.71V223.114H288.817V214.217H295.661V196.423H298.891L299.042 195.054H300.451V208.057H303.873V234.749H302.505V243.646H320.299V219.008H312.086V217.639ZM247.068 195.054H241.593V193.001H247.068V195.054ZM250.306 193.001C250.217 191.426 249.156 188.894 248.252 186.841H250.306L252.153 193.001H250.306ZM277.866 210.111H273.075V200.529H274.403C274.095 200.529 273.534 199.845 272.713 195.054H277.866V210.111ZM298.891 195.054H281.412L281.952 193.001H299.582L298.891 195.054ZM299.815 193.001L301.43 186.841H301.711C301.629 188.969 301.519 191.454 301.43 193.001H299.815ZM301.82 195.054V193.001H312.086V195.054H301.82Z" fill="white"/>
<path d="M244.331 240.909H228.59V242.962H244.331V240.909Z" fill="white"/>
<path d="M331.249 217.639H320.299V219.008H331.249V217.639Z" fill="white"/>
<path d="M100.997 108.82L110.524 77.3372H146.797L156.912 108.82H169.991L153.928 62.2804H172.407L170.395 56.8052H150.226L145.373 41.064H147.057L134.485 4.10645H122.117L110.325 41.064H98.5535L94.0023 56.8052H100.73L98.841 62.2804H103.892L88.8351 108.82H100.997ZM121.474 41.064L123.363 33.9257C125.359 27.124 126.92 20.2021 128.037 13.2021C129.406 18.9305 131.459 26.9928 134.197 35.9036L135.566 41.064H128.831L133.307 56.8052H148.453L150.301 62.2804H141.876L143.245 66.3868H113.816L115.184 62.2804H120.235L122.076 56.8052H115.342L119.784 41.064H121.474Z" fill="white"/>
<path d="M422.063 195.054H434.108L432.096 190.263H411.899L407.047 175.891H408.73L396.158 136.88H383.791L371.999 175.891H360.213L355.662 190.263H362.39L360.501 195.054H365.552L350.495 243.646H362.684L372.211 210.795H408.484L418.6 243.646H431.678L415.616 195.054H422.083H422.063ZM403.584 195.054L404.953 200.529H375.523L376.892 195.054H381.895L383.736 190.263H377.002L381.443 175.891H383.127L385.016 168.451C387.013 161.599 388.574 154.627 389.69 147.577C391.025 153.305 393.078 161.594 395.85 170.504L397.219 175.891H390.484L394.96 190.263H410.106L411.954 195.054H403.584Z" fill="white"/>
<path d="M351.172 57.0174C351.593 56.5311 351.96 56.0011 352.267 55.4364H338.005C340.652 50.4799 342.607 45.1834 343.815 39.6952H340.243C340.598 34.9044 340.797 34.1174 340.797 31.722C340.856 26.5697 339.91 21.4554 338.011 16.6652C336.15 12.2782 333.693 8.58928 330.64 6.15282C327.588 3.71636 323.796 3.32624 319.293 2.45706C316.076 1.77266 311.416 2.71029 305.311 2.71029H267.6V39.6679H271.707V55.4091H280.604V61.5686H267.6V108.108H279.92V65.018H306.378C315.714 65.018 322.948 63.6492 328.149 61.596H345.944C348.017 59.5428 349.776 58.7763 351.172 57.0174ZM279.92 39.6952V15.0569H306.317C311.833 15.0569 315.618 14.0713 317.664 14.701C320.84 15.7139 323.399 17.1511 325.343 20.313C327.287 23.475 328.259 28.0399 328.259 32.4748C328.273 34.9012 328.025 37.322 327.52 39.6952H331.092C330.305 42.4328 328.909 45.8548 326.876 47.908C323.571 51.289 317.979 53.3832 310.136 53.3832H285.395V39.6952H279.92Z" fill="white"/>
<path d="M142.075 162.49C140.706 166.501 139.686 172.469 138.961 175.891H129.222C128.469 181.366 128.051 186.841 127.983 189.579H137.749C137.91 184.994 138.349 180.423 139.063 175.891H148.802C149.186 175.206 149.651 170.895 150.219 168.944C151.242 165.229 152.764 161.67 154.743 158.363C156.653 155.241 159.275 152.614 162.394 150.698C165.806 148.709 169.697 147.691 173.646 147.755C177.118 147.699 180.537 148.608 183.522 150.383C186.411 152.085 188.778 154.547 190.366 157.501C191.96 160.478 193.302 164.557 194.376 169.765L202.938 166.405C201.693 159.525 199.881 153.944 197.504 149.665C195.214 145.477 191.801 142.012 187.649 139.659C183.363 137.238 178.512 135.998 173.591 136.066C166.757 135.968 160.09 138.185 154.674 142.355C149.199 146.523 144.99 153.867 142.075 162.49Z" fill="white"/>
<path d="M182.05 189.579H177.944V195.054H171.1V201.213H193.001V219.008C190.947 221.567 188.894 223.977 184.959 226.228C181.024 228.48 177.472 229.609 173.324 229.609C168.595 229.609 164.345 228.124 160.143 225.147C155.94 222.17 152.84 218.248 150.636 212.143C148.87 207.222 147.899 201.275 147.584 195.115H162.887C162.805 194.431 162.75 191.865 162.75 190.058C162.75 189.866 162.75 190.325 162.75 189.64H144.634C144.634 190.325 144.634 190.42 144.634 190.899C144.634 192.378 144.675 194.431 144.737 195.115H137.783C137.992 202.718 139.442 210.236 142.074 217.372C145.01 225.51 149.356 231.416 155.112 235.714C160.627 239.876 167.367 242.088 174.275 242.004C179.491 242.004 183.857 240.594 188.819 237.897C193.781 235.201 197.032 231.156 202.507 225.859V195.054H214.142V189.579H181.975H182.05Z" fill="white"/>
<path d="M98.5535 321.668H90.3407V307.98H98.5535V271.022H82.7644L70.4452 307.98H62.5951L57.8043 321.668H68.4742L73.265 307.98H78.7059V321.668H79.3903L77.4192 328.512H69.5692L64.4156 343.24C61.9792 350.686 60.1861 355.867 59.0363 359.714C58.0234 356.251 56.415 351.733 54.2044 344.766L48.8113 328.512H56.6546L54.7382 321.668H42.6586L44.6092 328.512H36.759L52.3018 377.104H64.3746L80.2527 328.512H84.1811V377.104H98.5535V328.512H112.242V321.668H98.5535ZM84.1811 286.079V307.98H81.1629L84.1811 286.079Z" fill="white"/>
<path d="M13.0036 307.98H0V321.668H13.0036V307.98Z" fill="white"/>
<path d="M34.4253 307.98H27.376V284.546L35.9995 307.98H48.1544L36.1843 271.022H14.3724V307.98H22.2704L26.9654 321.668H21.2164V328.512H14.3724V377.104H27.376V328.512H34.22V321.668H39.045L34.4253 307.98Z" fill="white"/>
<path d="M22.77 84.3454L16.3298 83.9279L16.7131 79.3904L23.1122 79.4588L23.5776 74.1068L30.1 64.094L35.7257 80.0063L29.265 80.5675L30.976 86.2344H37.5257L46.4092 109.504H69.0218L59.2759 86.2344H52.6988L50.7004 82.8124H57.5375L43.5963 46.0738L46.4092 41.7484H39.7637L42.9804 34.9044H49.3521L72.9981 0H52.9931L26.6506 38.9902L29.6414 0H10.3961L9.91016 6.22119L11.2037 5.83793L11.2516 12.3192H9.60903L1.82056 109.504H20.8058L22.77 84.3454Z" fill="white"/>
<path d="M361.233 109.504H383.394L388.678 93.0784H379.424L381.108 87.6032H390.108L390.587 85.55H412.351L412.727 85.8579L403.283 86.4602L403.796 93.0784H413.275L415.15 109.504H437.331L435.052 93.0784H426.025L425.587 87.6032H434.348L426.538 25.3228H419.653L418.969 19.8476H426.142L423.705 0H394.83L389.027 19.8476H381.697L380.164 25.3228H387.466L379.212 52.0144H382.094L380.164 59.5428H377.18L368.803 87.6032H360.172L358.393 93.0784H366.962L361.233 109.504ZM406.78 26.3973L410.448 69.8088H395.35L406.78 26.3973Z" fill="white"/>
<path d="M253.077 38.7301C253.762 32.5705 254.289 26.0071 254.289 26.0071H259.387V21.2163H254.713C252.023 -0.684473 225.284 -7.32411e-05 225.284 -7.32411e-05H191.632L189.763 21.2163H196.874L196.313 26.0071H189.421L188.826 30.1135H196.039L195.355 38.3263H188.21L186.903 52.0143H193.001L192.535 56.8051H186.752L185.048 77.3371H177.978L177.567 82.8123H184.582L182.242 109.504H202.849L203.759 103.344H210.501L211.247 98.5535H203.842L205.635 82.8123H198.223L199.085 77.3371H205.785L206.565 69.1243H215.223C225.982 69.1243 236.44 66.6126 244.7 58.3655C252.961 50.1185 252.413 44.8897 253.077 38.7301ZM241.593 26.0071H234.653C234.653 26.0071 233.832 37.4229 233.189 43.1171C232.545 48.8113 226.933 53.3831 219.685 53.3831H213.136L213.307 51.063L208.01 51.4668L209.228 38.3263H215.942L216.414 30.3941L209.789 30.4489L210.2 26.0071H216.879L217.379 20.0939L211.021 20.8125L211.267 17.1099H224.367C224.367 17.1099 230.786 17.1099 233.462 21.2163H240.224C240.224 21.2163 241.894 23.9539 241.593 26.0071Z" fill="white"/>
<path d="M32.7347 155.016C32.7347 155.016 35.2465 148.172 43.9658 148.172C50.9877 148.172 53.6774 153.976 55.1625 158.083H75.6945C75.6945 158.083 75.0786 133.362 45.7657 133.362C16.973 133.362 10.4096 151.464 10.4096 158.863C10.4096 166.261 9.6363 175.227 27.9987 189.606C39.1887 198.373 39.8046 199.831 39.8046 199.831H31.2907L36.8138 202.569H45.6083C45.6083 202.569 52.3154 207.975 50.4539 216.701C48.5923 225.428 38.5864 226.837 36.3278 226.837C34.0693 226.837 25.4391 226.659 23.1121 210.186L3.61358 211.623C3.61358 211.623 3.42193 224.483 7.52833 228.589H12.764C12.764 228.589 15.3784 233.38 16.2544 234.065H11.2378C11.2378 234.065 16.3982 242.565 37.683 242.565C58.9678 242.565 68.5289 229.794 71.376 217.071C72.4405 212.151 71.6379 207.012 69.1243 202.651L60.4051 203.486C60.4051 203.486 57.8796 199.845 57.9138 199.845H66.5989C66.5989 199.845 61.9449 191.83 45.7589 180.681C31.8245 171.1 32.3789 164.256 31.8314 160.834H19.1837C19.1837 160.834 19.5943 156.166 19.8201 155.42L32.7347 155.016Z" fill="white"/>
<path d="M196.998 298.398H190.462L190.982 292.923H197.217L198.462 279.919H193.836L194.137 274.444H198.928L199.557 268.285H180.339L177.91 293.539L171.203 293.156L170.628 298.398H177.807L176.336 314.139H184.548L183.864 321.907L175.651 322.592L173.666 344.937H165.96L165.632 349.728H173.564C173.564 349.728 173.509 361.418 161.929 361.418C150.349 361.418 152.046 349.728 152.046 349.728H143.991L144.538 344.937H152.443L154.134 321.668H161.73L162.415 314.139H154.955L157.864 274.444H164.256L164.578 271.022H158.343L158.548 268.285H140.363L139.761 271.022H146.509L145.88 274.444H139.72L136.476 314.139H144.792L144.107 321.668H135.525L134.142 344.937H126.272L125.861 349.728H133.875C133.875 349.728 130.002 378.268 161.183 378.268C185.938 378.268 193.049 358.625 193.049 349.728H185.411L185.534 343.918L193.63 343.87L195.136 321.668H203.15L203.732 314.139H195.519L196.998 298.398Z" fill="white"/>
</g>
<defs>
<clipPath id="clip0">
<rect width="437.331" height="378.275" fill="white"/>
</clipPath>
</defs>
</svg>
