<svg width="48" height="36" viewBox="0 0 48 36" fill="none" xmlns="http://www.w3.org/2000/svg">
<g clip-path="url(#clip0)">
<path fill-rule="evenodd" clip-rule="evenodd" d="M24 6C21.6266 6 19.3066 6.70379 17.3332 8.02236C15.3598 9.34094 13.8217 11.2151 12.9135 13.4078C12.0052 15.6005 11.7676 18.0133 12.2306 20.3411C12.6936 22.6689 13.8365 24.8071 15.5147 26.4853C17.193 28.1635 19.3311 29.3064 21.6589 29.7694C23.9867 30.2324 26.3995 29.9948 28.5922 29.0866C30.7849 28.1783 32.6591 26.6402 33.9776 24.6668C35.2962 22.6935 36 20.3734 36 18C36 14.8174 34.7357 11.7652 32.4853 9.51472C30.2349 7.26428 27.1826 6 24 6V6ZM22.68 10.7148C23.4614 10.7139 24.2354 10.8668 24.9576 11.165C25.6799 11.4632 26.3364 11.9008 26.8895 12.4527C27.4427 13.0047 27.8817 13.6602 28.1815 14.3818C28.4813 15.1034 28.636 15.877 28.6368 16.6584C28.6284 16.8859 28.5321 17.1013 28.3682 17.2593C28.2043 17.4172 27.9855 17.5055 27.7578 17.5055C27.5301 17.5055 27.3114 17.4172 27.1474 17.2593C26.9835 17.1013 26.8872 16.8859 26.8788 16.6584C26.8763 15.5464 26.4328 14.4807 25.6457 13.6952C24.8586 12.9096 23.792 12.4683 22.68 12.468C22.5622 12.4724 22.4446 12.4529 22.3345 12.4108C22.2243 12.3687 22.1238 12.3049 22.0389 12.223C21.954 12.1412 21.8864 12.0431 21.8403 11.9346C21.7941 11.826 21.7704 11.7093 21.7704 11.5914C21.7704 11.4735 21.7941 11.3568 21.8403 11.2482C21.8864 11.1397 21.954 11.0416 22.0389 10.9598C22.1238 10.8779 22.2243 10.8141 22.3345 10.772C22.4446 10.7299 22.5622 10.7104 22.68 10.7148ZM17.5884 20.2188C17.4731 20.219 17.3589 20.1964 17.2523 20.1524C17.1458 20.1084 17.0489 20.0438 16.9674 19.9623C16.8858 19.8808 16.8211 19.7841 16.7769 19.6776C16.7327 19.5711 16.71 19.4569 16.71 19.3416C16.7108 18.5597 16.8657 17.7857 17.1657 17.0637C17.4658 16.3417 17.9052 15.6859 18.4589 15.1338C19.0125 14.5817 19.6696 14.1441 20.3924 13.8461C21.1152 13.5481 21.8897 13.3954 22.6716 13.3968C22.9043 13.3968 23.1274 13.4892 23.2919 13.6537C23.4564 13.8182 23.5488 14.0414 23.5488 14.274C23.5488 14.5066 23.4564 14.7298 23.2919 14.8943C23.1274 15.0588 22.9043 15.1512 22.6716 15.1512C21.5594 15.1512 20.4925 15.5924 19.7051 16.378C18.9178 17.1635 18.4741 18.2294 18.4716 19.3416C18.4713 19.5744 18.3786 19.7975 18.2139 19.9619C18.0492 20.1264 17.826 20.2188 17.5932 20.2188H17.5884ZM25.3236 25.2852C23.7456 25.2868 22.2315 24.6615 21.1144 23.5469C19.9973 22.4323 19.3687 20.9196 19.3668 19.3416C19.3752 19.1141 19.4715 18.8987 19.6354 18.7407C19.7994 18.5828 20.0181 18.4945 20.2458 18.4945C20.4735 18.4945 20.6923 18.5828 20.8562 18.7407C21.0201 18.8987 21.1164 19.1141 21.1248 19.3416C21.1273 20.4538 21.571 21.5197 22.3583 22.3052C23.1457 23.0908 24.2126 23.532 25.3248 23.532C25.4427 23.5276 25.5602 23.5471 25.6703 23.5892C25.7805 23.6313 25.881 23.6951 25.9659 23.777C26.0509 23.8588 26.1184 23.9569 26.1645 24.0654C26.2107 24.174 26.2344 24.2907 26.2344 24.4086C26.2344 24.5265 26.2107 24.6432 26.1645 24.7518C26.1184 24.8603 26.0509 24.9584 25.9659 25.0402C25.881 25.1221 25.7805 25.1859 25.6703 25.228C25.5602 25.2701 25.4427 25.2896 25.3248 25.2852H25.3236ZM25.3236 22.6032C25.2084 22.6032 25.0943 22.5805 24.9879 22.5364C24.8815 22.4923 24.7848 22.4277 24.7033 22.3463C24.6219 22.2648 24.5573 22.1681 24.5132 22.0617C24.4691 21.9553 24.4464 21.8412 24.4464 21.726C24.4464 21.6108 24.4691 21.4967 24.5132 21.3903C24.5573 21.2839 24.6219 21.1872 24.7033 21.1057C24.7848 21.0243 24.8815 20.9597 24.9879 20.9156C25.0943 20.8715 25.2084 20.8488 25.3236 20.8488C26.4359 20.8488 27.5027 20.4076 28.2901 19.622C29.0774 18.8365 29.5211 17.7706 29.5236 16.6584C29.5236 16.4254 29.6162 16.202 29.7809 16.0373C29.9456 15.8725 30.169 15.78 30.402 15.78C30.635 15.78 30.8584 15.8725 31.0231 16.0373C31.1879 16.202 31.2804 16.4254 31.2804 16.6584C31.2788 18.2356 30.6512 19.7477 29.5353 20.8624C28.4195 21.9771 26.9068 22.6032 25.3296 22.6032H25.3236Z" fill="#01FFFF"/>
</g>
<rect x="0.5" y="0.5" width="47" height="35" rx="3.5" stroke="#01FFFF"/>
<defs>
<clipPath id="clip0">
<rect width="24" height="24" fill="white" transform="translate(12 6)"/>
</clipPath>
</defs>
</svg>
