<svg width="18" height="18" viewBox="0 0 18 18" fill="none" xmlns="http://www.w3.org/2000/svg">
<path fill-rule="evenodd" clip-rule="evenodd" d="M17.2732 2.97678C17.3256 3.02903 17.3672 3.0911 17.3955 3.15944C17.4239 3.22778 17.4385 3.30104 17.4385 3.37503C17.4385 3.44902 17.4239 3.52228 17.3955 3.59062C17.3672 3.65896 17.3256 3.72103 17.2732 3.77328L9.39823 11.6483C9.34598 11.7007 9.2839 11.7422 9.21557 11.7706C9.14723 11.7989 9.07397 11.8135 8.99998 11.8135C8.92599 11.8135 8.85273 11.7989 8.78439 11.7706C8.71605 11.7422 8.65398 11.7007 8.60173 11.6483L5.22673 8.27328C5.17443 8.22098 5.13294 8.15889 5.10464 8.09056C5.07634 8.02223 5.06177 7.94899 5.06177 7.87503C5.06177 7.80107 5.07634 7.72783 5.10464 7.6595C5.13294 7.59117 5.17443 7.52908 5.22673 7.47678C5.27903 7.42448 5.34111 7.38299 5.40945 7.35469C5.47778 7.32639 5.55102 7.31182 5.62498 7.31182C5.69894 7.31182 5.77218 7.32639 5.84051 7.35469C5.90884 7.38299 5.97093 7.42448 6.02323 7.47678L8.99998 10.4547L16.4767 2.97678C16.529 2.9244 16.5911 2.88283 16.6594 2.85448C16.7277 2.82612 16.801 2.81152 16.875 2.81152C16.949 2.81152 17.0222 2.82612 17.0906 2.85448C17.1589 2.88283 17.221 2.9244 17.2732 2.97678Z" fill="#A7FB8F"/>
<path fill-rule="evenodd" clip-rule="evenodd" d="M9.00001 2.81247C7.77624 2.81247 6.57995 3.17536 5.56242 3.85525C4.54489 4.53515 3.75182 5.5015 3.28351 6.63212C2.81519 7.76274 2.69266 9.00684 2.9314 10.2071C3.17015 11.4074 3.75945 12.5099 4.62479 13.3752C5.49012 14.2405 6.59263 14.8298 7.79289 15.0686C8.99315 15.3073 10.2372 15.1848 11.3679 14.7165C12.4985 14.2482 13.4648 13.4551 14.1447 12.4376C14.8246 11.42 15.1875 10.2237 15.1875 8.99997C15.1875 8.85079 15.2468 8.70771 15.3523 8.60223C15.4578 8.49674 15.6008 8.43747 15.75 8.43747C15.8992 8.43747 16.0423 8.49674 16.1478 8.60223C16.2532 8.70771 16.3125 8.85079 16.3125 8.99997C16.3123 10.6097 15.781 12.1743 14.8009 13.4513C13.8208 14.7282 12.4468 15.6461 10.8919 16.0625C9.33706 16.479 7.68821 16.3708 6.2011 15.7547C4.71398 15.1386 3.47172 14.049 2.66696 12.6549C1.86221 11.2608 1.53993 9.64012 1.75012 8.04421C1.9603 6.4483 2.6912 4.96634 3.82946 3.82815C4.96772 2.68996 6.44973 1.95916 8.04565 1.74908C9.64158 1.539 11.2622 1.86138 12.6563 2.66622C12.7235 2.70139 12.7829 2.74979 12.8309 2.80851C12.879 2.86723 12.9146 2.93506 12.9358 3.00792C12.9569 3.08078 12.9631 3.15716 12.9539 3.23247C12.9448 3.30778 12.9205 3.38046 12.8825 3.44615C12.8446 3.51183 12.7937 3.56915 12.733 3.61466C12.6723 3.66018 12.603 3.69295 12.5294 3.71099C12.4557 3.72904 12.3791 3.732 12.3042 3.71969C12.2294 3.70737 12.1578 3.68005 12.0938 3.63935C11.1535 3.09562 10.0861 2.81035 9.00001 2.81247Z" fill="#A7FB8F"/>
</svg>
