<svg width="18" height="18" viewBox="0 0 18 18" fill="none" xmlns="http://www.w3.org/2000/svg">
<g clip-path="url(#clip0_2016_4310)">
<path fill-rule="evenodd" clip-rule="evenodd" d="M13.8982 4.10178C13.9506 4.15403 13.9922 4.2161 14.0205 4.28444C14.0489 4.35278 14.0635 4.42604 14.0635 4.50003C14.0635 4.57402 14.0489 4.64728 14.0205 4.71562C13.9922 4.78396 13.9506 4.84603 13.8982 4.89828L6.02323 12.7733C5.97098 12.8257 5.9089 12.8672 5.84057 12.8956C5.77223 12.9239 5.69897 12.9385 5.62498 12.9385C5.55099 12.9385 5.47773 12.9239 5.40939 12.8956C5.34105 12.8672 5.27898 12.8257 5.22673 12.7733L1.28923 8.83578C1.18361 8.73016 1.12427 8.5869 1.12427 8.43753C1.12427 8.28816 1.18361 8.1449 1.28923 8.03928C1.39485 7.93366 1.53811 7.87432 1.68748 7.87432C1.83685 7.87432 1.98011 7.93366 2.08573 8.03928L5.62498 11.5797L13.1017 4.10178C13.154 4.0494 13.2161 4.00783 13.2844 3.97948C13.3527 3.95112 13.426 3.93652 13.5 3.93652C13.574 3.93652 13.6472 3.95112 13.7156 3.97948C13.7839 4.00783 13.846 4.0494 13.8982 4.10178Z" fill="#6C757D"/>
<path d="M7.03123 9.04811L6.02323 8.03898C5.91761 7.93336 5.77435 7.87402 5.62498 7.87402C5.47561 7.87402 5.33235 7.93336 5.22673 8.03898C5.12111 8.14461 5.06177 8.28786 5.06177 8.43723C5.06177 8.58661 5.12111 8.72986 5.22673 8.83548L6.23585 9.84348L7.03123 9.04811ZM8.15623 11.7639L9.16423 12.773C9.21648 12.8254 9.27855 12.8669 9.34689 12.8953C9.41523 12.9236 9.48849 12.9382 9.56248 12.9382C9.63647 12.9382 9.70973 12.9236 9.77807 12.8953C9.8464 12.8669 9.90848 12.8254 9.96073 12.773L17.8357 4.89798C17.9413 4.79236 18.0007 4.64911 18.0007 4.49973C18.0007 4.35036 17.9413 4.20711 17.8357 4.10148C17.7301 3.99586 17.5868 3.93652 17.4375 3.93652C17.2881 3.93652 17.1448 3.99586 17.0392 4.10148L9.56248 11.5794L8.9516 10.9685L8.15623 11.7639Z" fill="#6C757D"/>
</g>
<defs>
<clipPath id="clip0_2016_4310">
<rect width="18" height="18" fill="white"/>
</clipPath>
</defs>
</svg>
