<svg width="100" height="80" viewBox="0 0 123 104" fill="none" xmlns="http://www.w3.org/2000/svg">
<path d="M9.76274 17.3333H9.20125H3.59204V29.9565H6.61689V19.9446L9.38842 17.6442L16.8031 29.9565H20.9736L13.0182 17.3333H9.76274Z" fill="white"/>
<path d="M2.65617 15.6377H3.59199H4.04571H4.91536H5.43526H10.1673H11.5568H12.9463L11.4396 13.1545L12.7025 11.6812H11.7761L20.5331 1.13043H16.2491L7.77952 11.6812H7.31634H6.61684V1.13043H3.59199V11.6812H1.70145H0.189026V15.6377H1.70145H2.65617ZM5.9249 11.6812L4.91536 12.9039V11.6812H5.9249Z" fill="white"/>
<path d="M118.289 17.3333H119.68H120.217H121.609H123L122.446 16.2029H121.055H119.663H119.17H117.778H116.88L115.544 11.6812H116.007L112.543 1.13043H109.137L105.887 11.6812H105.713H105.422H104.03H102.639L101.384 16.2029H102.775H103.238L102.718 17.3333H104.11L99.9582 29.9565H103.316L105.94 21.2899H115.933L118.72 29.9565H122.323L117.897 17.3333H118.289ZM114.58 17.3333L114.956 18.6522H106.855L107.229 17.3333H108.621L109.127 16.2029H107.736H107.273L108.496 11.6812H108.959L109.479 9.77637C110.033 7.93753 110.462 5.97811 110.766 4.11478C111.135 5.68985 111.7 7.86029 112.462 10.3077L112.838 11.683H112.375H110.984L112.215 16.2048H113.606H115.491H116.389L116.899 17.3352H114.58V17.3333Z" fill="white"/>
<path d="M26.0894 48.6087H24.1989V52.3768H26.0894V48.6087Z" fill="white"/>
<path d="M28.547 53.884H26.0894V67.0725H29.4923V53.884H32.3281V52.3768H28.547V53.884Z" fill="white"/>
<path d="M29.4923 38.4348H26.0894V48.6087H29.4923V38.4348Z" fill="white"/>
<path d="M87.7208 52.5652H87.3653H86.0458H85.7433H85.6412V48.7971H87.7208V38.4348H83.7242L80.3288 48.7971H78.166L76.8559 52.5652H79.7975L81.1209 48.7971H82.8054V52.5652H82.8016L82.2571 53.8841H80.0944L78.6746 58.1043C78.0034 60.1486 77.5081 61.6596 77.1924 62.7146C76.9145 61.7651 76.4702 60.3916 75.8615 58.4793L74.3679 53.8822H76.5307L76.0032 52.5633H72.6759L73.2128 53.8822H71.05L75.3321 67.259H78.6575L83.0341 53.8822H83.8811H84.5069V67.259H87.7208V53.8822H88.4373H91.6909V52.5633H88.9855H87.7208V52.5652ZM84.5069 42.5816V48.7971H83.2818L84.5069 42.5816Z" fill="white"/>
<path d="M64.2781 48.7971H60.8752V52.5652H64.2781V48.7971Z" fill="white"/>
<path d="M70.4054 48.7971H68.6264V42.1652L70.8402 48.7971H74.1883L70.8912 38.4348H64.6562V48.7971H67.0553L68.3504 52.5652H67.1139V53.8841H64.6562V67.2609H68.6264V53.8841H70.5169V52.5652H71.6777L70.4054 48.7971Z" fill="white"/>
<path d="M38.616 30.3333H44.7187L44.091 25.4348H41.6031L41.484 23.7391H43.8982L41.7449 7.34783H39.8487L39.6577 5.84059H41.6333L40.9622 0.188416H33.0087L31.4093 5.84059H29.3902L28.9667 7.34783H30.9783L28.7058 14.8841H29.498L28.9667 16.7681H28.1463L25.8379 23.7391H23.4577L22.9681 25.4348H25.3294L23.7508 30.3333H29.8572L31.3129 25.4348H28.7626L29.2257 23.7391H31.7005L31.8328 23.5507H37.8296L37.9317 23.8635L35.3303 23.8239L35.4815 25.4348H38.0942L38.616 30.3333ZM33.1524 19.2174L36.302 7.29696L37.3116 19.2174H33.1524Z" fill="white"/>
<path d="M113.869 62.3623L113.75 60.6667H116.164L114.011 44.2754H112.114L111.923 42.5797H113.899L113.228 37.1159H105.274L103.675 42.5797H101.656L101.232 44.2754H103.244L100.972 51.2464H101.764L101.232 53.1304H100.412L98.1036 60.6667H95.7234L95.2337 62.3623H97.595L96.0164 67.2609H102.123L103.579 62.3623H101.03L101.493 60.6667H103.968L104.1 60.1014H110.097L110.199 60.4877L107.598 60.5988L107.749 62.3604H110.362L110.878 67.259H116.981L116.353 62.3604H113.869V62.3623ZM105.418 55.7681L108.568 43.8477L109.577 55.7681H105.418Z" fill="white"/>
<path d="M56.8691 21.2899L57.0847 19.2174H59.4705C62.4349 19.2174 65.3123 18.6672 67.5904 16.4026C69.8685 14.138 69.7153 12.8059 69.8987 11.1159C70.0821 9.42595 70.2314 7.72464 70.2314 7.72464H72.0293V6.2174H70.3468C69.6057 -0.188402 62.2383 0.18841 62.2383 0.18841H52.9595L52.4434 6.2174H54.402L54.247 7.72464H52.3489L52.1844 8.85508H54.1714L53.988 10.9275H52.0294L51.6683 14.8841H53.3433L53.2147 16.0145H51.6229L51.1541 21.2899H49.2049L49.0915 22.7971H51.0255L50.3808 30.3333H56.0581L56.3095 28.2609H58.1661L58.3721 27.1304H56.3322L56.8257 22.7971H54.7839L55.0221 21.2899H56.8691ZM57.8125 10.9275H59.6634L59.7919 8.80797L57.9675 8.88334L58.081 7.72653H59.9205L60.0566 6.07044L58.306 6.18725L58.374 5.08884H61.983C61.983 5.08884 63.7526 5.08884 64.4899 6.21928H66.3653C66.3653 6.21928 66.8171 6.7845 66.7302 7.72653H64.8188C64.8188 7.72653 64.592 10.8691 64.4143 12.4329C64.2366 13.9948 62.6901 15.2609 60.6918 15.2609C59.2947 15.2609 58.8882 15.2609 58.8882 15.2609L58.9336 14.5807L57.4741 14.6128L57.8125 10.9275Z" fill="white"/>
<path d="M20.7713 80.6377H19.0131L18.5499 82.1449H20.327L16.2038 95.3258L14.109 82.1449H12.3282L12.1353 80.6377H13.9843L12.8745 73.8551H4.94941L4.38792 80.7375L2.62027 80.5114L2.51251 82.1449H4.26693L3.44833 91.4767L5.33508 91.3561L5.10443 94.0107L3.34435 94.0748L2.51251 103.812H7.87785L8.68132 94.5797H10.5927L10.7099 93.2948L10.4074 91.7536H8.97247L9.585 84.6978L13.368 103.812H17.7672L20.0302 97.029H18.0829L18.5499 95.8985H20.4007L24.1119 84.7845L23.2384 95.8985H21.4481L21.2647 97.029H23.0645L22.4973 103.812H28.029L28.6662 97.029H26.5809L26.6924 95.8985H28.6945L29.8988 82.1449H25.543L25.7056 80.6377H29.8591L30.3922 76.3043H28.7474L28.9119 75.1739H30.4716L30.6399 73.8551H22.9908L20.7713 80.6377Z" fill="white"/>
<path d="M88.6395 19.4058C88.1972 19.4058 87.7642 19.3983 87.3427 19.3832V19.4058H88.6395Z" fill="white"/>
<path d="M96.7953 11.1159H93.9538C93.9538 10.5507 93.9746 9.92333 94.0181 9.49188C94.0181 7.1387 93.6362 4.86841 92.8725 3.34797C91.5623 0.936377 88.5658 0 83.8868 0H75.4323V17.1449H78.6462V18.8406H75.8709C75.8992 22.6087 75.4323 25.0749 75.4323 26.9119V28.6377H75.9994V30.7101H80.7258V26.7536H80.3477V22.0435H81.2929V18.7746C81.4612 18.7746 84.0115 19.272 87.3426 19.3832V18.087H93.5814V12.4348H90.1784V11.1159H93.6533C93.6117 11.1988 93.5814 11.3514 93.5814 11.6265V12.4348H96.7953V11.1159ZM87.4504 12.8116H83.1835V14.6957H81.2929V5.46377H84.556C85.7376 5.46377 86.4919 5.35261 86.8246 5.59565C87.717 5.8971 88.1631 6.79768 88.1631 8.76275C88.1631 10.8314 87.9268 12.4348 87.4504 12.8116Z" fill="white"/>
<path d="M2.45769 58.029H0V58.971H2.45769V58.029Z" fill="white"/>
<path d="M21.7411 52.5652H19.4725V52.942H21.7411V52.5652Z" fill="white"/>
<path d="M5.48256 62.5507V67.4493H18.7163V62.5507H20.4178V53.5072H19.4725V52.942H12.4775V52.5652H17.582V51.4141C17.0148 50.6246 15.7482 49.9633 14.5893 49.4264C12.4114 48.4956 11.4831 47.9681 11.3413 47.84C9.67198 47.1354 8.31836 45.9936 8.31836 44.4148V43.9701C8.31836 43.7874 8.87417 43.9588 8.94412 43.6348C9.25417 42.5213 10.6532 42.3894 12.0956 42.3894H12.9445C13.4965 42.3894 14.0977 42.3951 14.7481 42.7606C15.44 43.5217 15.7879 44.281 15.7879 45.3945C16.6367 45.3945 18.2134 45.5923 20.518 45.5923H20.5596C20.5596 43.7083 20.1626 41.9354 19.3723 40.3C18.2266 38.1427 15.9712 36.5714 12.6042 36.5714C9.66253 36.5714 7.31637 37.1348 5.90226 38.2633C4.34824 39.5746 3.40297 41.4926 3.40297 44.0154V44.4167C3.40297 47.433 4.72634 49.7655 7.18404 51.4141V52.5652H4.15918V52.942H9.64173V55.0145H15.3133V62.5507H8.31836V57.087H2.4577V58.029H3.97013V58.971H2.4577V62.5507H5.48256Z" fill="white"/>
<path d="M47.8305 55.0145H51.2334V62.3623H45.5618V57.8406H44.7754C44.7035 56.7101 44.0494 54.1309 44.0494 51.382V49.0138C44.0494 47.3219 44.3462 45.8561 44.643 44.6164C45.1516 42.7417 46.4258 41.8054 48.1651 41.8054C48.8873 41.8336 49.1652 41.9184 49.6473 42.0597C51.2599 42.5119 51.4225 43.9268 51.4225 46.3101V46.4156L52.1295 46.557L57.6953 45.9371C57.6953 43.9494 57.4627 42.4836 56.9958 41.3984C55.99 38.4498 53.2261 37.1159 48.7001 37.1159H48.6358C45.2972 37.1159 42.9151 37.7527 41.4858 39.2185C40.5236 40.219 39.9375 41.0461 39.7258 41.892C39.0319 43.2165 38.686 47.1674 38.686 53.5657C38.686 53.7201 38.6992 54.8261 38.7276 55.5797H36.2982V58.971H39.5121V61.0435H38.5669V61.4203H37.4325V62.1739H39.5121V67.0725H55.3926V57.8406H54.0692V56.3333H57.0941V52.3768H58.2284V51.6232H47.8305V55.0145Z" fill="white"/>
<path d="M49.721 67.2609H43.2932V67.8261H49.721V67.2609Z" fill="white"/>
<path d="M52.9349 92.5072H55.2036V73.8551H49.721V93.4493H48.3977V98.5362H46.7094C45.9608 98.5362 44.8378 98.167 44.333 97.8561C43.3405 97.4058 42.348 95.6009 42.348 92.8671V90.058H40.0793V89.3043H42.348V73.8551H36.4873V87.0435H37.4326V99.8551H38.945V104H51.9897V100.232H55.2036V93.9655C55.2036 93.7413 56.0619 94.3913 56.0902 93.8261H52.9349V92.5072Z" fill="white"/>
<path d="M46.5071 89.3044H42.348V90.058H46.5071V89.3044Z" fill="white"/>
</svg>
