<svg width="18" height="18" viewBox="0 0 18 18" fill="none" xmlns="http://www.w3.org/2000/svg">
<path fill-rule="evenodd" clip-rule="evenodd" d="M9.00001 2.81247C7.77624 2.81247 6.57995 3.17536 5.56242 3.85525C4.54489 4.53515 3.75182 5.5015 3.28351 6.63212C2.81519 7.76274 2.69266 9.00684 2.9314 10.2071C3.17015 11.4074 3.75945 12.5099 4.62479 13.3752C5.49012 14.2405 6.59263 14.8298 7.79289 15.0686C8.99315 15.3073 10.2372 15.1848 11.3679 14.7165C12.4985 14.2482 13.4648 13.4551 14.1447 12.4376C14.8246 11.42 15.1875 10.2237 15.1875 8.99997C15.1875 8.85079 15.2468 8.70771 15.3523 8.60223C15.4578 8.49674 15.6008 8.43747 15.75 8.43747C15.8992 8.43747 16.0423 8.49674 16.1478 8.60223C16.2532 8.70771 16.3125 8.85079 16.3125 8.99997C16.3123 10.6097 15.781 12.1743 14.8009 13.4513C13.8208 14.7282 12.4468 15.6461 10.8919 16.0625C9.33706 16.479 7.68821 16.3708 6.2011 15.7547C4.71398 15.1386 3.47172 14.049 2.66696 12.6549C1.86221 11.2608 1.53993 9.64012 1.75012 8.04421C1.9603 6.4483 2.6912 4.96634 3.82946 3.82815C4.96772 2.68996 6.44973 1.95916 8.04565 1.74908C9.64158 1.539 11.2622 1.86138 12.6563 2.66622C12.7235 2.70139 12.7829 2.74979 12.8309 2.80851C12.879 2.86723 12.9146 2.93506 12.9358 3.00792C12.9569 3.08078 12.9631 3.15716 12.9539 3.23247C12.9448 3.30778 12.9205 3.38046 12.8825 3.44615C12.8446 3.51183 12.7937 3.56915 12.733 3.61466C12.6723 3.66018 12.603 3.69295 12.5294 3.71099C12.4557 3.72904 12.3791 3.732 12.3042 3.71969C12.2294 3.70737 12.1578 3.68005 12.0938 3.63935C11.1535 3.09562 10.0861 2.81035 9.00001 2.81247Z" fill="#F19A85"/>
<path fill-rule="evenodd" clip-rule="evenodd" d="M3.02431 10.5993C3.34105 11.7814 4.0012 12.843 4.92128 13.6499C5.84136 14.4568 6.98005 14.9727 8.19335 15.1325C9.40665 15.2922 10.6401 15.0886 11.7376 14.5473C12.8352 14.006 13.7476 13.1515 14.3595 12.0917C14.9714 11.0318 15.2553 9.81437 15.1752 8.59322C15.0952 7.37207 14.6548 6.20207 13.9099 5.23119C13.1649 4.2603 12.1487 3.53214 10.9899 3.13877C9.83106 2.7454 8.58161 2.7045 7.39954 3.02123C7.25544 3.05985 7.1019 3.03963 6.9727 2.96504C6.8435 2.89045 6.74923 2.76759 6.71062 2.62349C6.67201 2.47939 6.69222 2.32585 6.76681 2.19665C6.8414 2.06745 6.96426 1.97318 7.10837 1.93457C8.66326 1.51815 10.3121 1.62642 11.7992 2.24259C13.2863 2.85876 14.5285 3.94839 15.3332 5.3425C16.1379 6.73661 16.4602 8.35729 16.2499 9.9532C16.0397 11.5491 15.3088 13.031 14.1705 14.1692C13.0322 15.3073 11.5501 16.0381 9.9542 16.2481C8.35826 16.4582 6.73763 16.1357 5.34362 15.3308C3.94961 14.5259 2.86014 13.2836 2.24416 11.7964C1.62818 10.3092 1.52012 8.66037 1.93674 7.10553C1.95331 7.0315 1.98468 6.96158 2.02897 6.89999C2.07326 6.83839 2.12955 6.78639 2.19446 6.74712C2.25936 6.70785 2.33154 6.68211 2.40665 6.67145C2.48177 6.6608 2.55826 6.66544 2.63153 6.68512C2.70479 6.70479 2.77333 6.73908 2.833 6.78592C2.89267 6.83277 2.94225 6.8912 2.97876 6.9577C3.01526 7.02421 3.03794 7.09741 3.04542 7.1729C3.0529 7.2484 3.04503 7.32462 3.02229 7.397C2.74045 8.44593 2.74115 9.55076 3.02431 10.5993Z" fill="#F19A85"/>
<path fill-rule="evenodd" clip-rule="evenodd" d="M5.80857 5.7883C5.75618 5.84055 5.71462 5.90263 5.68626 5.97096C5.65791 6.0393 5.64331 6.11256 5.64331 6.18655C5.64331 6.26054 5.65791 6.3338 5.68626 6.40214C5.71462 6.47048 5.75618 6.53255 5.80857 6.5848L11.4336 12.2098C11.5392 12.3153 11.6824 12.3745 11.8317 12.3744C11.9809 12.3743 12.124 12.3149 12.2295 12.2092C12.335 12.1036 12.3942 11.9604 12.3941 11.8112C12.394 11.6619 12.3346 11.5188 12.2289 11.4133L6.60394 5.7883C6.55169 5.73592 6.48962 5.69436 6.42128 5.666C6.35294 5.63764 6.27968 5.62305 6.20569 5.62305C6.1317 5.62305 6.05844 5.63764 5.9901 5.666C5.92176 5.69436 5.85969 5.73592 5.80744 5.7883H5.80857Z" fill="#F19A85"/>
<path fill-rule="evenodd" clip-rule="evenodd" d="M12.229 5.78969C12.2814 5.84194 12.323 5.90402 12.3513 5.97235C12.3797 6.04069 12.3943 6.11395 12.3943 6.18794C12.3943 6.26193 12.3797 6.33519 12.3513 6.40353C12.323 6.47187 12.2814 6.53394 12.229 6.58619L6.60404 12.2112C6.49842 12.3168 6.35516 12.3762 6.20579 12.3762C6.05642 12.3762 5.91316 12.3168 5.80754 12.2112C5.70192 12.1056 5.64258 11.9623 5.64258 11.8129C5.64258 11.6636 5.70192 11.5203 5.80754 11.4147L11.4325 5.78969C11.538 5.68424 11.6811 5.625 11.8302 5.625C11.9794 5.625 12.1224 5.68424 12.2279 5.78969H12.229Z" fill="#F19A85"/>
</svg>
