<svg width="48" height="36" viewBox="0 0 48 36" fill="none" xmlns="http://www.w3.org/2000/svg">
<path d="M35 9.00005C34.0424 9.67552 32.9821 10.1922 31.86 10.53C31.2577 9.83756 30.4573 9.34674 29.567 9.12397C28.6767 8.90121 27.7395 8.95724 26.8821 9.2845C26.0247 9.61176 25.2884 10.1944 24.773 10.9538C24.2575 11.7131 23.9877 12.6124 24 13.53V14.53C22.2426 14.5756 20.5013 14.1859 18.931 13.3955C17.3607 12.6051 16.0103 11.4387 15 10C15 10 11 19 20 23C17.9405 24.398 15.4872 25.099 13 25C22 30 33 25 33 13.5C32.9991 13.2215 32.9723 12.9436 32.92 12.67C33.9406 11.6635 34.6608 10.3928 35 9.00005Z" fill="#01FFFF"/>
<rect x="0.5" y="0.5" width="47" height="35" rx="3.5" stroke="#01FFFF"/>
</svg>
