<svg width="602" height="310" viewBox="0 0 602 310" fill="none" xmlns="http://www.w3.org/2000/svg">
<path d="M239 259.188L182.5 303.981H239L233.5 293.411L286 242.579L316.5 236.54L312 226.474L562 278.816L568 275.293L601 278.816L575.5 259.188L446 201.813L426.5 170.105L192 54.852L112 6.0329L53 1L29 22.5698L1 38.1201L59.5 70.454L82.5 129.842L145.5 179.668L248 226.474L239 259.188Z" stroke="#495057" stroke-linecap="round" stroke-linejoin="round"/>
<path d="M591 277.81L345.5 199.296L243 185.204L143.5 112.227L68 38.2435H1.5M139 77.5001L264 132.862L406.5 160.543L195 72.4672L97.5 16.6021H53M287 242.076L260.5 235.533M260.5 235.533V246.102L237.5 273.783L205 300.458M260.5 235.533L252.5 211.879L119.5 132.862L70.5 65.4212M163.5 108.201L220 139.405L294 148.464L252.5 164.066L379 190.237L446.5 202.819" stroke="#495057" stroke-linecap="round" stroke-linejoin="round"/>
<ellipse cx="237.5" cy="302.977" rx="7" ry="7.02273" fill="#E6007A"/>
<ellipse cx="237.5" cy="302.977" rx="3" ry="3.00974" fill="#212529"/>
<path d="M260 162.523C260 164.464 258.431 166.036 256.5 166.036C254.569 166.036 253 164.464 253 162.523C253 160.581 254.569 159.01 256.5 159.01C258.431 159.01 260 160.581 260 162.523Z" fill="#212529" stroke="#6C757D"/>
<path d="M122 134.432C122 136.374 120.431 137.945 118.5 137.945C116.569 137.945 115 136.374 115 134.432C115 132.49 116.569 130.919 118.5 130.919C120.431 130.919 122 132.49 122 134.432Z" fill="#212529" stroke="#6C757D"/>
<path d="M73 41.1299C73 43.0716 71.4315 44.6429 69.5 44.6429C67.5685 44.6429 66 43.0716 66 41.1299C66 39.1882 67.5685 37.6169 69.5 37.6169C71.4315 37.6169 73 39.1882 73 41.1299Z" fill="#212529" stroke="#6C757D"/>
</svg>
