<svg width="48" height="36" viewBox="0 0 48 36" fill="none" xmlns="http://www.w3.org/2000/svg">
<path d="M27.3789 9C29.0913 9.28067 30.7564 9.7764 32.3304 10.4741C35.0468 14.317 36.3963 18.6511 35.898 23.6502C33.8197 25.1224 31.8038 26.0155 29.8217 26.6C29.3293 25.9591 28.8943 25.2804 28.5211 24.5709C29.2334 24.3142 29.9201 23.9975 30.5728 23.6246C30.402 23.5033 30.2346 23.3779 30.0707 23.2484C26.1689 24.9984 21.8782 24.9984 17.9293 23.2484C17.7669 23.378 17.5989 23.5042 17.4271 23.6246C18.0788 23.9965 18.7642 24.3125 19.4752 24.5689C19.1018 25.2783 18.6667 25.9571 18.1746 26.5982C16.1944 26.0137 14.1804 25.1206 12.102 23.6502C11.677 19.338 12.5264 14.9635 15.6601 10.4776C17.2348 9.77773 18.9014 9.28077 20.6155 9C20.8306 9.36528 21.0854 9.8567 21.2572 10.2476C23.0694 9.98462 24.8985 9.98462 26.7447 10.2476C26.9339 9.82188 27.1455 9.4055 27.3789 9ZM20.0133 16.3461C18.807 16.3461 17.8556 17.3964 17.8556 18.6731C17.8556 19.9498 18.8278 20.9982 20.0133 20.9982C21.2195 20.9982 22.1728 19.9498 22.1709 18.6731C22.1916 17.3945 21.2195 16.3461 20.0133 16.3461ZM27.9868 16.3461C26.7805 16.3461 25.8291 17.3964 25.8291 18.6731C25.8291 19.9498 26.8013 20.9982 27.9868 20.9982C29.193 20.9982 30.1444 19.9498 30.1444 18.6731C30.1651 17.3945 29.193 16.3461 27.9868 16.3461Z" fill="#01FFFF"/>
<rect x="0.5" y="0.5" width="47" height="35" rx="3.5" stroke="#01FFFF"/>
</svg>
