<?xml version="1.0" encoding="UTF-8"?>
<svg id="Camada_1" data-name="Camada 1" xmlns="http://www.w3.org/2000/svg" viewBox="0 0 1280 1024">
  <defs>
    <style>
      .cls-1 {
        fill: #e6007a;
      }

      .cls-2 {
        fill: #fff;
      }

      .cls-3 {
        fill: #01ffff;
      }
    </style>
  </defs>
  <g>
    <polygon class="cls-1" points="449.994779624137664 693.401010757886979 475.570067211736387 731.563068372302951 442.864915344785913 731.563068372302951 417.57263217761556 693.823373415616516 417.748108111938564 693.401010757886979 449.994779624137664 693.401010757886979"/>
    <path class="cls-2" d="M442.658509664960548,693.401010757886979l.206405679825366-61.857842018787778-40.923494686356207,100.01989963320375h-34.779857932661798l-40.841034190901155-98.367784716907408v98.367784716907408h-32.78695267844887v-130.231509688184815h53.206810089917781l37.935126330903586,95.242861780998282,37.76954565604774-95.242861780998282h53.125009278449397v92.069452073768844h-32.911557546775839Z"/>
  </g>
  <path class="cls-2" d="M579.954481274376121,380.010639910698046h-10.521959220576719l-39.713634296971577-87.347764103789814h-45.272791058846451l-39.772346169731463,87.347764103789814h10.521959220553981l-16.964432809793834,37.257960742203068h36.799150545502016l10.384085272150514-24.007218805917546h64.379217698630782l10.384085272174161,24.007218805917546h36.71734973398361l-16.940684187075021-37.257960742203068ZM507.04027245371617,318.91400961527961l20.269449467774393,46.684844583067388h-40.456438440055535l20.186988972281142-46.684844583067388Z"/>
  <path class="cls-2" d="M997.492870188654706,380.010639910698046h-10.522618904516094l-39.713634296999771-87.347764103789814h-45.272791058817347l-39.772346169759658,87.347764103789814h10.522618904515184l-16.9650924937323,37.257960742203068h36.799150545479279l10.384744956115355-24.007218805917546h64.378558014693226l10.384085272145967,24.007218805917546h36.71734973398452l-16.940024503108361-37.257960742203068ZM924.578001684027186,318.91400961527961l20.269449467774393,46.684844583067388h-40.456438440055535l20.186988972281142-46.684844583067388Z"/>
  <path class="cls-2" d="M293.49998891316136,292.662875806908232h34.282584080299785v78.36000332367621l61.342981023737593-78.36000332367621h36.440118293539854l-42.416963990986915,52.378373486818418,44.077419243400982,72.134618145722015h-39.097375504762567l-26.728570296742873-45.322760682685839-36.771944940335743,45.322760682685839h-31.128247908150115v-124.512991632540434Z"/>
  <path class="cls-2" d="M705.105658538208445,297.97606821082536c7.580454153786377,3.541687596482916,13.39072551857862,8.549493723867272,17.43081409446313,15.024740400749579,4.038766557399867,6.47392465836856,6.060132863826766,14.00017605316043,6.060132863826766,22.577432165774553,0,8.578578131149698-2.021366306426899,16.103507507405084-6.060132863826766,22.578754184281024-4.040088575884511,6.475246676905954-9.850359940676753,11.483052804291219-17.43081409446313,15.024740400745941-7.583098190811143,3.541687596451993-16.547705727758512,5.311870385414295-26.895144629363131,5.311870385414295h-35.444638353205846v38.682261691657914h-34.4478363943972v-124.512991632540434h69.892474747603046c10.347438901604619,0,19.312046438551988,1.772826825995253,26.895144629363131,5.313192403917128ZM676.218232009679923,350.934807824869495c5.532647477088176,0,9.849037922197567-1.355068975880386,12.949171335274514-4.066528946127619,3.098811394574113-2.711459970242686,4.648217091837068-6.475246676905044,4.648217091837068-11.290038101392383,0-4.813469406009062-1.549405697262955-8.577256112614123-4.648217091837068-11.28871608289046-3.100133413076946-2.710137951738943-7.416523858186338-4.067850964631361-12.949171335274514-4.067850964631361h-33.452356454040455v30.713134095041823h33.452356454040455Z"/>
  <path class="cls-2" d="M838.963650406150919,297.97606821082536c7.580454153777282,3.541687596482916,13.390725518599538,8.549493723867272,17.430814094454036,15.024740400749579,4.038766557381678,6.47392465836856,6.060132863825856,14.00017605316043,6.060132863825856,22.577432165774553,0,8.578578131149698-2.021366306444179,16.103507507405084-6.060132863825856,22.578754184281024-4.040088575854497,6.475246676905954-9.850359940676753,11.483052804291219-17.430814094454036,15.024740400745941-7.583098190850251,3.541687596451993-16.547705727792163,5.311870385414295-26.895144629372226,5.311870385414295h-35.444638353230403v38.682261691657914h-34.4478363943972v-124.512991632540434h69.892474747627602c10.347438901580063,0,19.312046438521975,1.772826825995253,26.895144629372226,5.313192403917128ZM810.07622387761694,350.934807824869495c5.532647477083628,0,9.84903792219302-1.355068975880386,12.949171335250867-4.066528946127619,3.098811394574113-2.711459970242686,4.648217091885272-6.475246676905044,4.648217091885272-11.290038101392383,0-4.813469406009062-1.549405697311158-8.577256112614123-4.648217091885272-11.28871608289046-3.100133413057847-2.710137951738943-7.416523858167238-4.067850964631361-12.949171335250867-4.067850964631361h-33.452356454068649v30.713134095041823h33.452356454068649Z"/>
  <path class="cls-2" d="M986.125196126672563,534.995470967731308h-10.98769609892679l-41.470372692238016-91.211533079012042h-47.275591572555641l-41.531723300826343,91.211533079012042h10.987696098897686l-17.714493476471034,38.906181125428702h38.426590883860626l10.84388499482975-25.068980145430032h67.227073369834216l10.842565626873693,25.068980145430032h38.341491652574405l-17.689425485852553-38.906181125428702ZM909.985132723656534,471.196280394127825l21.166619658388299,48.7498203103587h-42.246161033526732l21.079541375138433-48.7498203103587Z"/>
  <path class="cls-2" d="M337.992521969690642,542.732560471860779c5.532647477092723,3.016846246777277,12.836799761674229,4.52394735164853,21.91377887222643,4.52394735164853,8.52173133508677,0,15.176772529732261-1.10652949543146,19.96380156547275-3.320910504749918,4.785707017207642-2.213058990841091,7.179882544343855-5.367395162968023,7.179882544343855-9.463008516378977,0-2.211736972307335-.609450534532698-4.053308760992877-1.82570756651694-5.519427291977991-1.218901069014464-1.466118530936001-3.278605912362764-2.669155377829156-6.184402604035313-3.61175457761783-2.905796691680735-.939955162783008-6.931343063870372-1.659133233886678-12.077961135161786-2.15753421329282l-23.075833145206161-2.158856231792015c-16.989259911086265-1.548083678784678-29.399047693049397-5.380615348100036-37.229363345807542-11.496272989453246-7.831637671271892-6.114335622793988-11.746134488410462-14.622846772779667-11.746134488410462-25.525533449844261,0-8.466206557512123,2.490682878596999-15.700291860900506,7.470726617239052-21.706221965658187,4.981365757140338-6.003286067743829,12.022436357607148-10.569538011780423,21.125855838427015-13.696111795159595,9.102097462317943-3.125251764818131,19.797227232847945-4.690521684274245,32.082745274569788-4.690521684274245,11.841319821311117,0,22.43994224040398,1.715980029940511,31.791901201650035,5.14661807131688,9.351958961274249,3.43196005982918,16.753940615824831,8.246751484344713,22.204622945087976,14.44437427349294,5.450682329293159,6.197622789149136,8.452986372405576,13.364285148354611,9.006912129389093,21.498665059118139h-35.029524540128477c-.609450534507232-4.482964777738744-3.417417856215252-8.010110170526787-8.425223983629621-10.584080215421636-5.009128145917202-2.57264802636837-11.746134488410462-3.858972039593027-20.212341045921676-3.858972039593027-7.85940006004148,0-14.016040275281739,1.051004717885007-18.469920645736238,3.154336172126023-4.455202388964608,2.10333145426921-6.68148156494226,5.091093293740414-6.68148156494226,8.964607536971016,0,3.043286617022204,1.381509346153507,5.409699755358815,4.149816112459121,7.096595378015991,2.76698474782188,1.689539659674665,7.608216542553237,2.892576506542355,14.52633942133798,3.61175457761874l24.819575563873514,2.407395712274592c11.787117062292054,1.106529495403265,21.222363189893258,3.016846246749083,28.305738382775417,5.72698419851713,7.083375192908534,2.711459970247233,12.229993264170844,6.41972189932676,15.439854213848776,11.12346376871028,3.208538931145085,4.703741869441728,4.814791424487339,10.652825178112835,4.814791424487339,17.845927907614168,0,8.632780890171489-2.601732433647157,16.229099266121921-7.802553263934897,22.786311090823801-5.203464867370712,6.557211824700062-12.535379540702706,11.635084933306644-21.998388057079865,15.232297307282352-9.463008516378068,3.595890355472875-20.392135563711236,5.39515755174034-32.787381142032245,5.39515755174034-12.783919021099791,0-24.101719511297233-1.81380939990413-33.950757433470244-5.437462144156598-9.850359940677663-3.623652744274295-17.543185668068872-8.727966223124895-23.075833145181605-15.314262455103744-5.53529151409839-6.584974213477835-8.43976618724264-14.194512774567556-8.71606805652209-22.827293664731769h35.029524540180319c.773380830123642,5.257667626394323,3.927717002249665,9.394263553687779,9.463008516348964,12.409787781934938Z"/>
  <polygon class="cls-2" points="469.177051674840186 534.995470967731308 469.177051674840186 444.500354673283255 434.729014775904943 444.500354673283255 434.729014775904943 534.995470967731308 444.147322725224512 534.995470967731308 444.147322725224512 573.90165209316001 478.595359624193406 573.90165209316001 478.595359624193406 534.995470967731308 469.177051674840186 534.995470967731308"/>
  <path class="cls-2" d="M561.958947053394695,506.624513685710554h65.991198115598309v67.477295242348191h-26.01240433921248l.030774502383792-19.660310810235387c-5.367395162966204,6.100463404540278-12.105723523962297,10.867195448186976-20.212341045951689,14.304169511302462-8.107939540490406,3.436974063140951-17.502203094182732,5.156123324792134-28.181468642563232,5.156123324792134-13.114423649396485,0-25.013912285298829-2.565479291068186-35.693177833679329-7.692464492756699-10.680587566859685-5.126985201688512-19.120353754155985-12.59826485107078-25.317976543304212-22.412514488012675-6.197622789149136-9.812925176767749-9.296434183724159-21.482743469778143-9.296434183724159-35.010779339057081,0-13.5823387350747,3.125251764847235-25.266726089571421,9.37972135007476-35.051837603426975,6.253147566676489-9.785111513856464,14.844945882956381-17.241822101704201,25.774072930293187-22.371456223671885,10.929127047338625-5.126985201690331,23.283390051720744-7.692464492757608,37.062789013179099-7.692464492757608,13.336522759606851,0,25.054894859188607,2.079402419697544,35.155116298876237,6.238207259093542,10.097577402622846,4.15748037926187,18.205516943114162,9.924179828559318,24.321174584466462,17.297449427585889,6.114335622823091,7.373269599024752,10.085679236020951,15.882925998093924,11.911386802528796,25.530293657420771h-34.697697893349869c-1.107851513940659-4.158804839401455-3.334130689890117-7.761336420039697-6.681481564908609-10.811568122310746-3.348672893561343-3.047582781991878-7.583098190850251-5.390552769545138-12.700631854831045-7.026261042352417-5.118855682491812-1.635708272838201-10.861704103154807-2.454224639312088-17.224579206479575-2.454224639312088-7.80255326398219,0-14.52633942128432,1.372140704981575-20.171358472011889,4.116422114921079-5.643697032161072,2.744281409938594-9.989171884554708,6.834214322081607-13.031136483069531,12.267149816108031-3.044608635555051,5.434259954135996-4.566251944037504,12.087023237044377-4.566251944037504,19.958289848702407,0,7.983845723495506,1.645913048719194,14.747863658166352,4.939061164746818,20.292053803944327,3.291826097448393,5.544190145785251,7.996889985392954,9.729484187981143,14.111225608216046,12.557206586736356,6.114335622815815,2.827722398780679,13.377505333463887,4.240921368078489,21.789509131979685,4.240921368078489,8.52173133506767,0,16.007000155944297-1.2886997161404,22.454484444045193-3.867423608608078,6.446162269598062-2.577399432300808,11.412985823126292-6.277941063321123,14.900470660536485-11.101624892933614h-34.034044599801746v-24.282652205598424Z"/>
  <g>
    <polygon class="cls-3" points="797.324305407871179 535.73959447874222 822.899592995470812 573.90165209316001 790.194441128520339 573.90165209316001 764.902157961349076 536.161957136471756 765.077633895672989 535.73959447874222 797.324305407871179 535.73959447874222"/>
    <path class="cls-2" d="M789.988035448694973,535.73959447874222l.206405679825366-61.857842018786869-40.923494686356207,100.019899633204659h-34.779857932662708l-40.841034190900245-98.367784716907408v98.367784716907408h-32.786952678449779v-130.231509688185724h53.20681008991869l37.935126330903586,95.242861780999192,37.76954565604683-95.242861780999192h53.125009278450307v92.069452073767934h-32.911557546775839Z"/>
  </g>
  <path class="cls-2" d="M580.310710614760865,601.507776762919093v70.319012107534945c0,8.869121049585374-2.434893509921494,15.773703255361397-7.304020845776904,20.714736143267146-4.870446703776906,4.943836544725855-11.926426379221994,7.413198541749807-21.167279342330403,7.413198541749807-9.186758878086039,0-16.242078869531724-2.484039965207558-21.165959974398902-7.454923552471882-4.927839208638943-4.969564219310996-7.389120077056759-11.861777350764896-7.389120077056759-20.673011132545071v-31.66202659936971h9.418307949319569v-38.656985508165235h-34.448036898967985v38.656985508165235h-9.418307949319569v33.35691962303099c0,11.466461735562916,2.628180911248819,21.576943083788137,7.885862101722523,30.331114202675963,5.256361822522194,8.754336039910413,12.643502847718082,15.533248450587053,22.164061811439751,20.332779128277252,9.516600859895334,4.799365756714906,20.501658222969127,7.20127506843528,32.953193037261372,7.20127506843528,12.450875130355598,0,23.435932493381188-2.401909311720374,32.954512405218338-7.20127506843528,9.51660085991989-4.7995306776902,16.892527257712572-11.578443088366839,22.121182353792392-20.332779128277252,5.229974463972212-8.754171118887825,7.84430201199666-18.864652467113046,7.84430201199666-30.331114202675963v-72.013905131196225h-34.448696582900084Z"/>
  <g>
    <path class="cls-1" d="M644.399977898869111,601.400326380437036l12.696558919482413,31.589028317555858,12.695540424449064-31.589028317555858h16.018889674748607l-20.171293871332637,46.775402289082194h-17.442745712754913l-20.17129387130808-46.775402289082194h16.374344436715546Z"/>
    <path class="cls-1" d="M689.622175282413082,610.128310711977974c2.16532041256869-2.699884954892696,5.06192024945085-4.769935102827731,8.690818005768961-6.211188063000009,3.628897756318111-1.44021534102103,7.707970311442295-2.160323011545188,12.237217665450771-2.160323011545188,4.230828313150596,0,7.968705036603751.654737665843641,11.212611675305197,1.964212997530922,3.242888143756318,1.309475331690919,5.754496863067288,3.133609747794253,7.534826158071155,5.470328010042067,1.779310799952327,2.336718262249633,2.669475447439254,5.015850834684898,2.669475447439254,8.038435336429757,0,2.377185408020523-.668132733097082,4.593539852152389-2.002361209339142,6.64802571330074-1.335246971246306,2.055523480215925-3.386495941533212,4.024924573372118-6.155783900956521,5.908203279410372-2.768269464374498,1.884316325164036-6.338094509533221,3.762406935577019-10.708456640385521,5.636347069525073l-1.571537815882948.665113857061442h21.565613553746516v12.08826276878608h-45.800702554962299v-10.637671236518145l19.222056512705421-10.456087890222989c2.867063481336118-1.551240587072243,5.013032488510362-2.800534009673356,6.436888526491202-3.747880267888831,1.423856037985388-.9463086390424,2.416888682480931-1.802344414525578,2.98113492356697-2.56810732638769.563227746060875-.765762911896672.845350866597983-1.621798687348928.845350866597983-2.569144945564403,0-1.47030629555411-.603967546862805-2.624138758945264-1.809865650551728-3.460459771140449-1.205898103688924-.835283393020291-2.877248431557746-1.254481518226385-5.013032488504905-1.254481518226385-2.788639364769551,0-4.89997954127557.574840993473117-6.333002034431956,1.723485361273561-1.434040988178822,1.147606748700127-2.249855499203477,2.628289235472039-2.447443533069418,4.442047460357571h-15.187797738476547c.25666074505807-3.646193593936914,1.468669818899798-6.819232868354447,3.633990231417556-9.519117823223496Z"/>
    <path class="cls-1" d="M742.308922667641127,647.093068463233067c-1.236452954289234-.722112969187947-2.215226668487048-1.700886683411227-2.936321142648922-2.936321142697125-.722112969187947-1.236452954286506-1.082660206308901-2.605310261174964-1.082660206308901-4.10860891071934,0-1.503298649546196.360547237120954-2.872155956436472,1.082660206308901-4.108608910748444.721094474161873-1.235434459256794,1.699868188359687-2.214208173509178,2.936321142648922-2.936321142700763,1.235434459314092-.722112969160662,2.60531026119952-1.083678701281315,4.108608910744806-1.083678701281315,1.502280154517393,0,2.872155956436472.361565732120653,4.108608910721159,1.083678701281315,1.235434459313183.722112969191585,2.214208173535553,1.700886683443969,2.936321142699853,2.936321142700763.722112969212503,1.236452954311972,1.082660206286164,2.605310261202249,1.082660206286164,4.108608910748444,0,1.503298649544377-.360547237073661,2.872155956432835-1.082660206286164,4.10860891071934-.7221129691643,1.235434459285898-1.70088668338667,2.214208173509178-2.936321142699853,2.936321142697125-1.236452954284687.72109447416733-2.606328756203766,1.082660206286164-4.108608910721159,1.082660206286164-1.503298649545286,0-2.873174451430714-.361565732118834-4.108608910744806-1.082660206286164Z"/>
    <path class="cls-1" d="M768.528039967850418,645.267925387362993c-3.926298302149007-1.937177528048778-6.966505936885369-4.666744181684408-9.121641399254258-8.186662970840189-2.156153957342212-3.519918789163057-3.233721688503465-7.593898869215991-3.233721688503465-12.221940240156982,0-4.627022875914918,1.077567731161253-8.701002955967851,3.233721688503465-12.220921745123633,2.155135462368889-3.519918789163057,5.195343097105251-6.24948544279323,9.121641399254258-8.187681465899004,3.925279807097468-1.937177528054235,8.4484161910068-2.906784787106517,13.570427646646749-2.906784787106517,5.122011455611755,0,9.645147839491983.969607259052282,13.571446141669185,2.906784787106517,3.925279807069273,1.938196023105775,6.96548744183383,4.667762676735947,9.121641399224245,8.187681465899004,2.1551354623507,3.519918789155781,3.233721688503465,7.593898869208715,3.233721688503465,12.220921745123633,0,4.628041370940991-1.078586226152765,8.702021450993925-3.233721688503465,12.221940240156982-2.156153957390416,3.519918789155781-5.196361592154972,6.249485442791411-9.121641399224245,8.186662970840189-3.926298302177202,1.938196023105775-8.44943468605743,2.907803282156237-13.571446141669185,2.907803282156237-5.122011455639949,0-9.645147839549281-.969607259050463-13.570427646646749-2.907803282156237ZM774.178650338858461,632.957376080477843c1.878104816914856,1.918844617701325,4.518043908782602,2.87724843153228,7.919817275638707,2.87724843153228,3.401773366802445,0,6.041712458694747-.958403813830955,7.920835770632948-2.87724843153228,1.878104816884843-1.917826122680708,2.818175720369254-4.616837925721484,2.818175720369254-8.098053904112021,0-3.480197483393567-.940070903484411-6.179209286401601-2.818175720369254-8.098053904108383-1.879123311938201-1.917826122707993-4.519062403830503-2.877248431561384-7.920835770632948-2.877248431561384-3.401773366856105,0-6.04171245872385.959422308853391-7.919817275638707,2.877248431561384-1.879123311938201,1.918844617706782-2.81817572034106,4.617856420714816-2.81817572034106,8.098053904108383,0,3.481215978390537.939052408402858,6.180227781431313,2.81817572034106,8.098053904112021Z"/>
  </g>
</svg>