<svg width="24" height="24" viewBox="0 0 24 24" fill="none" xmlns="http://www.w3.org/2000/svg">
<path fill-rule="evenodd" clip-rule="evenodd" d="M23.7255 0.919479C23.8114 0.989882 23.8805 1.07848 23.928 1.17887C23.9755 1.27925 24.0001 1.38893 24 1.49998V21C23.9999 21.1733 23.9398 21.3412 23.8298 21.4752C23.7199 21.6092 23.567 21.701 23.397 21.735L15.897 23.235C15.8 23.2543 15.7 23.2543 15.603 23.235L8.25 21.765L0.897 23.235C0.788233 23.2567 0.675998 23.2541 0.568381 23.2272C0.460764 23.2003 0.360444 23.15 0.274649 23.0797C0.188854 23.0093 0.11972 22.9209 0.0722277 22.8207C0.0247353 22.7204 6.69791e-05 22.6109 0 22.5L0 2.99998C0.000104673 2.82666 0.0602342 2.65873 0.170165 2.52473C0.280096 2.39074 0.433042 2.29895 0.603 2.26498L8.103 0.764979C8.20004 0.745583 8.29996 0.745583 8.397 0.764979L15.75 2.23498L23.103 0.764979C23.2117 0.743103 23.324 0.745613 23.4316 0.772329C23.5392 0.799045 23.6396 0.849301 23.7255 0.919479ZM15 3.61498L9 2.41498V20.385L15 21.585V3.61498ZM16.5 21.585L22.5 20.385V2.41498L16.5 3.61498V21.585ZM7.5 20.385V2.41498L1.5 3.61498V21.585L7.5 20.385Z" fill="#01FFFF"/>
</svg>
